0
SECTION
2
ENTITIES
0
3DFACE
8
0
10
200.0
20
200.0
30
-800.0
11
200.0
21
0.0
31
-800.0
12
100.0
22
0.0
32
-800.0
13
100.0001
23
1.0E-4
33
-799.9999
0
3DFACE
8
0
10
200.0
20
200.0
30
-800.0
11
100.0
21
0.0
31
-800.0
12
0.0
22
100.0
32
-800.0
13
1.0E-4
23
100.0001
33
-799.9999
0
3DFACE
8
0
10
200.0
20
200.0
30
-800.0
11
0.0
21
100.0
31
-800.0
12
400.0
22
400.0
32
-800.0
13
400.0001
23
400.0001
33
-799.9999
0
3DFACE
8
0
10
200.0
20
200.0
30
-800.0
11
400.0
21
400.0
31
-800.0
12
300.0
22
200.0
32
-800.0
13
300.0001
23
200.0001
33
-799.9999
0
3DFACE
8
0
10
400.0
20
400.0
30
-800.0
11
400.0
21
300.00003
31
-800.0
12
399.98477
22
298.25473
32
-800.0
13
399.98486
23
298.25482
33
-799.9999
0
3DFACE
8
0
10
400.0
20
400.0
30
-800.0
11
399.98477
21
298.25473
31
-800.0
12
399.9391
22
296.51004
32
-800.0
13
399.93918
23
296.51013
33
-799.9999
0
3DFACE
8
0
10
400.0
20
400.0
30
-800.0
11
399.9391
21
296.51004
31
-800.0
12
399.86295
22
294.76642
32
-800.0
13
399.86304
23
294.7665
33
-799.9999
0
3DFACE
8
0
10
400.0
20
400.0
30
-800.0
11
399.86295
21
294.76642
31
-800.0
12
399.7564
22
293.02435
32
-800.0
13
399.7565
23
293.02444
33
-799.9999
0
3DFACE
8
0
10
400.0
20
400.0
30
-800.0
11
399.7564
21
293.02435
31
-800.0
12
399.61948
22
291.2844
32
-800.0
13
399.61957
23
291.2845
33
-799.9999
0
3DFACE
8
0
10
400.0
20
400.0
30
-800.0
11
399.61948
21
291.2844
31
-800.0
12
399.45218
22
289.54715
32
-800.0
13
399.45227
23
289.54724
33
-799.9999
0
3DFACE
8
0
10
400.0
20
400.0
30
-800.0
11
399.45218
21
289.54715
31
-800.0
12
399.2546
22
287.81305
32
-800.0
13
399.2547
23
287.81314
33
-799.9999
0
3DFACE
8
0
10
400.0
20
400.0
30
-800.0
11
399.2546
21
287.81305
31
-800.0
12
399.0268
22
286.0827
32
-800.0
13
399.0269
23
286.0828
33
-799.9999
0
3DFACE
8
0
10
400.0
20
400.0
30
-800.0
11
399.0268
21
286.0827
31
-800.0
12
398.76883
22
284.35657
32
-800.0
13
398.76892
23
284.35666
33
-799.9999
0
3DFACE
8
0
10
400.0
20
400.0
30
-800.0
11
398.76883
21
284.35657
31
-800.0
12
398.48077
22
282.63516
32
-800.0
13
398.48087
23
282.63525
33
-799.9999
0
3DFACE
8
0
10
400.0
20
400.0
30
-800.0
11
398.48077
21
282.63516
31
-800.0
12
398.16272
22
280.9191
32
-800.0
13
398.1628
23
280.9192
33
-799.9999
0
3DFACE
8
0
10
400.0
20
400.0
30
-800.0
11
398.16272
21
280.9191
31
-800.0
12
397.81476
22
279.20883
32
-800.0
13
397.81485
23
279.20892
33
-799.9999
0
3DFACE
8
0
10
400.0
20
400.0
30
-800.0
11
397.81476
21
279.20883
31
-800.0
12
397.437
22
277.50488
32
-800.0
13
397.4371
23
277.50497
33
-799.9999
0
3DFACE
8
0
10
400.0
20
400.0
30
-800.0
11
397.437
21
277.50488
31
-800.0
12
397.02957
22
275.80783
32
-800.0
13
397.02966
23
275.80792
33
-799.9999
0
3DFACE
8
0
10
400.0
20
400.0
30
-800.0
11
397.02957
21
275.80783
31
-800.0
12
396.5926
22
274.11807
32
-800.0
13
396.59268
23
274.11816
33
-799.9999
0
3DFACE
8
0
10
400.0
20
400.0
30
-800.0
11
396.5926
21
274.11807
31
-800.0
12
396.12616
22
272.43625
32
-800.0
13
396.12625
23
272.43634
33
-799.9999
0
3DFACE
8
0
10
400.0
20
400.0
30
-800.0
11
396.12616
21
272.43625
31
-800.0
12
395.63046
22
270.76282
32
-800.0
13
395.63055
23
270.7629
33
-799.9999
0
3DFACE
8
0
10
400.0
20
400.0
30
-800.0
11
395.63046
21
270.76282
31
-800.0
12
395.10565
22
269.0983
32
-800.0
13
395.10574
23
269.0984
33
-799.9999
0
3DFACE
8
0
10
400.0
20
400.0
30
-800.0
11
395.10565
21
269.0983
31
-800.0
12
394.55188
22
267.4432
32
-800.0
13
394.55197
23
267.4433
33
-799.9999
0
3DFACE
8
0
10
400.0
20
400.0
30
-800.0
11
394.55188
21
267.4432
31
-800.0
12
393.96924
22
265.79797
32
-800.0
13
393.96933
23
265.79807
33
-799.9999
0
3DFACE
8
0
10
400.0
20
400.0
30
-800.0
11
393.96924
21
265.79797
31
-800.0
12
393.35803
22
264.1632
32
-800.0
13
393.35812
23
264.1633
33
-799.9999
0
3DFACE
8
0
10
400.0
20
400.0
30
-800.0
11
393.35803
21
264.1632
31
-800.0
12
392.71838
22
262.53934
32
-800.0
13
392.71848
23
262.53943
33
-799.9999
0
3DFACE
8
0
10
400.0
20
400.0
30
-800.0
11
392.71838
21
262.53934
31
-800.0
12
392.05048
22
260.92688
32
-800.0
13
392.05057
23
260.92697
33
-799.9999
0
3DFACE
8
0
10
400.0
20
400.0
30
-800.0
11
392.05048
21
260.92688
31
-800.0
12
391.35455
22
259.32635
32
-800.0
13
391.35464
23
259.32645
33
-799.9999
0
3DFACE
8
0
10
400.0
20
400.0
30
-800.0
11
391.35455
21
259.32635
31
-800.0
12
390.63077
22
257.73816
32
-800.0
13
390.63086
23
257.73825
33
-799.9999
0
3DFACE
8
0
10
400.0
20
400.0
30
-800.0
11
390.63077
21
257.73816
31
-800.0
12
389.8794
22
256.16287
32
-800.0
13
389.8795
23
256.16296
33
-799.9999
0
3DFACE
8
0
10
400.0
20
400.0
30
-800.0
11
389.8794
21
256.16287
31
-800.0
12
389.10065
22
254.60095
32
-800.0
13
389.10074
23
254.60106
33
-799.9999
0
3DFACE
8
0
10
400.0
20
400.0
30
-800.0
11
389.10065
21
254.60095
31
-800.0
12
388.29477
22
253.05286
32
-800.0
13
388.29486
23
253.05296
33
-799.9999
0
3DFACE
8
0
10
400.0
20
400.0
30
-800.0
11
388.29477
21
253.05286
31
-800.0
12
387.46198
22
251.51906
32
-800.0
13
387.46207
23
251.51917
33
-799.9999
0
3DFACE
8
0
10
400.0
20
400.0
30
-800.0
11
387.46198
21
251.51906
31
-800.0
12
386.60254
22
249.99998
32
-800.0
13
386.60263
23
250.00009
33
-799.9999
0
3DFACE
8
0
10
400.0
20
400.0
30
-800.0
11
386.60254
21
249.99998
31
-800.0
12
385.71674
22
248.49619
32
-800.0
13
385.71683
23
248.49629
33
-799.9999
0
3DFACE
8
0
10
400.0
20
400.0
30
-800.0
11
385.71674
21
248.49619
31
-800.0
12
384.8048
22
247.00807
32
-800.0
13
384.8049
23
247.00818
33
-799.9999
0
3DFACE
8
0
10
400.0
20
400.0
30
-800.0
11
384.8048
21
247.00807
31
-800.0
12
383.86707
22
245.5361
32
-800.0
13
383.86716
23
245.53621
33
-799.9999
0
3DFACE
8
0
10
400.0
20
400.0
30
-800.0
11
383.86707
21
245.5361
31
-800.0
12
382.90375
22
244.08069
32
-800.0
13
382.90384
23
244.0808
33
-799.9999
0
3DFACE
8
0
10
400.0
20
400.0
30
-800.0
11
382.90375
21
244.08069
31
-800.0
12
381.9152
22
242.64233
32
-800.0
13
381.91528
23
242.64244
33
-799.9999
0
3DFACE
8
0
10
400.0
20
400.0
30
-800.0
11
381.9152
21
242.64233
31
-800.0
12
380.9017
22
241.22147
32
-800.0
13
380.9018
23
241.22157
33
-799.9999
0
3DFACE
8
0
10
400.0
20
400.0
30
-800.0
11
380.9017
21
241.22147
31
-800.0
12
379.86356
22
239.8185
32
-800.0
13
379.86365
23
239.8186
33
-799.9999
0
3DFACE
8
0
10
400.0
20
400.0
30
-800.0
11
379.86356
21
239.8185
31
-800.0
12
378.8011
22
238.43387
32
-800.0
13
378.80118
23
238.43398
33
-799.9999
0
3DFACE
8
0
10
400.0
20
400.0
30
-800.0
11
378.8011
21
238.43387
31
-800.0
12
377.71457
22
237.06793
32
-800.0
13
377.71466
23
237.06804
33
-799.9999
0
3DFACE
8
0
10
400.0
20
400.0
30
-800.0
11
377.71457
21
237.06793
31
-800.0
12
376.60443
22
235.72122
32
-800.0
13
376.60452
23
235.72133
33
-799.9999
0
3DFACE
8
0
10
400.0
20
400.0
30
-800.0
11
376.60443
21
235.72122
31
-800.0
12
375.47095
22
234.39409
32
-800.0
13
375.47104
23
234.3942
33
-799.9999
0
3DFACE
8
0
10
400.0
20
400.0
30
-800.0
11
375.47095
21
234.39409
31
-800.0
12
374.31448
22
233.08694
32
-800.0
13
374.31458
23
233.08705
33
-799.9999
0
3DFACE
8
0
10
400.0
20
400.0
30
-800.0
11
374.31448
21
233.08694
31
-800.0
12
373.13538
22
231.80017
32
-800.0
13
373.13547
23
231.80028
33
-799.9999
0
3DFACE
8
0
10
400.0
20
400.0
30
-800.0
11
373.13538
21
231.80017
31
-800.0
12
371.93396
22
230.53415
32
-800.0
13
371.93405
23
230.53426
33
-799.9999
0
3DFACE
8
0
10
400.0
20
400.0
30
-800.0
11
371.93396
21
230.53415
31
-800.0
12
370.71066
22
229.2893
32
-800.0
13
370.71075
23
229.28941
33
-799.9999
0
3DFACE
8
0
10
400.0
20
400.0
30
-800.0
11
370.71066
21
229.2893
31
-800.0
12
369.46582
22
228.06601
32
-800.0
13
369.4659
23
228.06612
33
-799.9999
0
3DFACE
8
0
10
400.0
20
400.0
30
-800.0
11
369.46582
21
228.06601
31
-800.0
12
368.19983
22
226.86464
32
-800.0
13
368.19992
23
226.86475
33
-799.9999
0
3DFACE
8
0
10
400.0
20
400.0
30
-800.0
11
368.19983
21
226.86464
31
-800.0
12
366.9131
22
225.68552
32
-800.0
13
366.91318
23
225.68562
33
-799.9999
0
3DFACE
8
0
10
400.0
20
400.0
30
-800.0
11
366.9131
21
225.68552
31
-800.0
12
365.6059
22
224.52902
32
-800.0
13
365.606
23
224.52913
33
-799.9999
0
3DFACE
8
0
10
400.0
20
400.0
30
-800.0
11
365.6059
21
224.52902
31
-800.0
12
364.27875
22
223.39555
32
-800.0
13
364.27884
23
223.39566
33
-799.9999
0
3DFACE
8
0
10
400.0
20
400.0
30
-800.0
11
364.27875
21
223.39555
31
-800.0
12
362.93204
22
222.2854
32
-800.0
13
362.93213
23
222.2855
33
-799.9999
0
3DFACE
8
0
10
400.0
20
400.0
30
-800.0
11
362.93204
21
222.2854
31
-800.0
12
361.56616
22
221.19893
32
-800.0
13
361.56625
23
221.19904
33
-799.9999
0
3DFACE
8
0
10
400.0
20
400.0
30
-800.0
11
361.56616
21
221.19893
31
-800.0
12
360.18152
22
220.13646
32
-800.0
13
360.1816
23
220.13657
33
-799.9999
0
3DFACE
8
0
10
400.0
20
400.0
30
-800.0
11
360.18152
21
220.13646
31
-800.0
12
358.7785
22
219.0983
32
-800.0
13
358.7786
23
219.0984
33
-799.9999
0
3DFACE
8
0
10
400.0
20
400.0
30
-800.0
11
358.7785
21
219.0983
31
-800.0
12
357.35764
22
218.08478
32
-800.0
13
357.35773
23
218.08488
33
-799.9999
0
3DFACE
8
0
10
400.0
20
400.0
30
-800.0
11
357.35764
21
218.08478
31
-800.0
12
355.91928
22
217.09624
32
-800.0
13
355.91937
23
217.09634
33
-799.9999
0
3DFACE
8
0
10
400.0
20
400.0
30
-800.0
11
355.91928
21
217.09624
31
-800.0
12
354.46393
22
216.13295
32
-800.0
13
354.46402
23
216.13306
33
-799.9999
0
3DFACE
8
0
10
400.0
20
400.0
30
-800.0
11
354.46393
21
216.13295
31
-800.0
12
352.99194
22
215.1952
32
-800.0
13
352.99203
23
215.19531
33
-799.9999
0
3DFACE
8
0
10
400.0
20
400.0
30
-800.0
11
352.99194
21
215.1952
31
-800.0
12
351.50378
22
214.28326
32
-800.0
13
351.50388
23
214.28337
33
-799.9999
0
3DFACE
8
0
10
400.0
20
400.0
30
-800.0
11
351.50378
21
214.28326
31
-800.0
12
350.0
22
213.39746
32
-800.0
13
350.0001
23
213.39757
33
-799.9999
0
3DFACE
8
0
10
400.0
20
400.0
30
-800.0
11
350.0
21
213.39746
31
-800.0
12
348.48096
22
212.53802
32
-800.0
13
348.48105
23
212.53813
33
-799.9999
0
3DFACE
8
0
10
400.0
20
400.0
30
-800.0
11
348.48096
21
212.53802
31
-800.0
12
346.94717
22
211.70525
32
-800.0
13
346.94727
23
211.70535
33
-799.9999
0
3DFACE
8
0
10
400.0
20
400.0
30
-800.0
11
346.94717
21
211.70525
31
-800.0
12
345.39902
22
210.89934
32
-800.0
13
345.3991
23
210.89944
33
-799.9999
0
3DFACE
8
0
10
400.0
20
400.0
30
-800.0
11
345.39902
21
210.89934
31
-800.0
12
343.8371
22
210.12059
32
-800.0
13
343.8372
23
210.1207
33
-799.9999
0
3DFACE
8
0
10
400.0
20
400.0
30
-800.0
11
343.8371
21
210.12059
31
-800.0
12
342.2618
22
209.36922
32
-800.0
13
342.2619
23
209.36932
33
-799.9999
0
3DFACE
8
0
10
400.0
20
400.0
30
-800.0
11
342.2618
21
209.36922
31
-800.0
12
340.67368
22
208.64545
32
-800.0
13
340.67377
23
208.64555
33
-799.9999
0
3DFACE
8
0
10
400.0
20
400.0
30
-800.0
11
340.67368
21
208.64545
31
-800.0
12
339.07312
22
207.94952
32
-800.0
13
339.0732
23
207.94963
33
-799.9999
0
3DFACE
8
0
10
400.0
20
400.0
30
-800.0
11
339.07312
21
207.94952
31
-800.0
12
337.46063
22
207.28162
32
-800.0
13
337.46072
23
207.28172
33
-799.9999
0
3DFACE
8
0
10
400.0
20
400.0
30
-800.0
11
337.46063
21
207.28162
31
-800.0
12
335.8368
22
206.64195
32
-800.0
13
335.83688
23
206.64206
33
-799.9999
0
3DFACE
8
0
10
400.0
20
400.0
30
-800.0
11
335.8368
21
206.64195
31
-800.0
12
334.20203
22
206.03073
32
-800.0
13
334.20212
23
206.03084
33
-799.9999
0
3DFACE
8
0
10
400.0
20
400.0
30
-800.0
11
334.20203
21
206.03073
31
-800.0
12
332.55682
22
205.44815
32
-800.0
13
332.55692
23
205.44826
33
-799.9999
0
3DFACE
8
0
10
400.0
20
400.0
30
-800.0
11
332.55682
21
205.44815
31
-800.0
12
330.9017
22
204.89435
32
-800.0
13
330.9018
23
204.89445
33
-799.9999
0
3DFACE
8
0
10
400.0
20
400.0
30
-800.0
11
330.9017
21
204.89435
31
-800.0
12
329.23715
22
204.3695
32
-800.0
13
329.23724
23
204.36961
33
-799.9999
0
3DFACE
8
0
10
400.0
20
400.0
30
-800.0
11
329.23715
21
204.3695
31
-800.0
12
327.56372
22
203.87383
32
-800.0
13
327.5638
23
203.87393
33
-799.9999
0
3DFACE
8
0
10
400.0
20
400.0
30
-800.0
11
327.56372
21
203.87383
31
-800.0
12
325.8819
22
203.40741
32
-800.0
13
325.882
23
203.40752
33
-799.9999
0
3DFACE
8
0
10
400.0
20
400.0
30
-800.0
11
325.8819
21
203.40741
31
-800.0
12
324.1922
22
202.97043
32
-800.0
13
324.1923
23
202.97054
33
-799.9999
0
3DFACE
8
0
10
400.0
20
400.0
30
-800.0
11
324.1922
21
202.97043
31
-800.0
12
322.49512
22
202.563
32
-800.0
13
322.4952
23
202.56311
33
-799.9999
0
3DFACE
8
0
10
400.0
20
400.0
30
-800.0
11
322.49512
21
202.563
31
-800.0
12
320.79114
22
202.18524
32
-800.0
13
320.79123
23
202.18535
33
-799.9999
0
3DFACE
8
0
10
400.0
20
400.0
30
-800.0
11
320.79114
21
202.18524
31
-800.0
12
319.08087
22
201.83728
32
-800.0
13
319.08096
23
201.83739
33
-799.9999
0
3DFACE
8
0
10
400.0
20
400.0
30
-800.0
11
319.08087
21
201.83728
31
-800.0
12
317.3648
22
201.51923
32
-800.0
13
317.3649
23
201.51933
33
-799.9999
0
3DFACE
8
0
10
400.0
20
400.0
30
-800.0
11
317.3648
21
201.51923
31
-800.0
12
315.64346
22
201.23117
32
-800.0
13
315.64355
23
201.23128
33
-799.9999
0
3DFACE
8
0
10
400.0
20
400.0
30
-800.0
11
315.64346
21
201.23117
31
-800.0
12
313.91733
22
200.9732
32
-800.0
13
313.91742
23
200.97331
33
-799.9999
0
3DFACE
8
0
10
400.0
20
400.0
30
-800.0
11
313.91733
21
200.9732
31
-800.0
12
312.18692
22
200.74538
32
-800.0
13
312.187
23
200.74548
33
-799.9999
0
3DFACE
8
0
10
400.0
20
400.0
30
-800.0
11
312.18692
21
200.74538
31
-800.0
12
310.45285
22
200.5478
32
-800.0
13
310.45294
23
200.54791
33
-799.9999
0
3DFACE
8
0
10
400.0
20
400.0
30
-800.0
11
310.45285
21
200.5478
31
-800.0
12
308.71558
22
200.38052
32
-800.0
13
308.71567
23
200.38063
33
-799.9999
0
3DFACE
8
0
10
400.0
20
400.0
30
-800.0
11
308.71558
21
200.38052
31
-800.0
12
306.97565
22
200.24359
32
-800.0
13
306.97574
23
200.2437
33
-799.9999
0
3DFACE
8
0
10
400.0
20
400.0
30
-800.0
11
306.97565
21
200.24359
31
-800.0
12
305.2336
22
200.13705
32
-800.0
13
305.2337
23
200.13716
33
-799.9999
0
3DFACE
8
0
10
400.0
20
400.0
30
-800.0
11
305.2336
21
200.13705
31
-800.0
12
303.48993
22
200.06091
32
-800.0
13
303.49002
23
200.06102
33
-799.9999
0
3DFACE
8
0
10
400.0
20
400.0
30
-800.0
11
303.48993
21
200.06091
31
-800.0
12
301.74524
22
200.01523
32
-800.0
13
301.74533
23
200.01534
33
-799.9999
0
3DFACE
8
0
10
400.0
20
400.0
30
-800.0
11
301.74524
21
200.01523
31
-800.0
12
300.0
22
200.0
32
-800.0
13
300.0001
23
200.0001
33
-799.9999
0
3DFACE
8
0
10
400.0
20
400.0
30
-800.0
11
0.0
21
100.0
31
-800.0
12
0.0
22
400.0
32
-800.0
13
1.0E-4
23
400.0001
33
-799.9999
0
3DFACE
8
0
10
200.0
20
200.0
30
-1200.0
11
200.0
21
0.0
31
-1200.0
12
100.0
22
0.0
32
-1200.0
13
100.0001
23
1.0E-4
33
-1199.9999
0
3DFACE
8
0
10
200.0
20
200.0
30
-1200.0
11
100.0
21
0.0
31
-1200.0
12
0.0
22
100.0
32
-1200.0
13
1.0E-4
23
100.0001
33
-1199.9999
0
3DFACE
8
0
10
200.0
20
200.0
30
-1200.0
11
0.0
21
100.0
31
-1200.0
12
400.0
22
400.0
32
-1200.0
13
400.0001
23
400.0001
33
-1199.9999
0
3DFACE
8
0
10
200.0
20
200.0
30
-1200.0
11
400.0
21
400.0
31
-1200.0
12
300.0
22
200.0
32
-1200.0
13
300.0001
23
200.0001
33
-1199.9999
0
3DFACE
8
0
10
400.0
20
400.0
30
-1200.0
11
400.0
21
300.00003
31
-1200.0
12
399.98477
22
298.25473
32
-1200.0
13
399.98486
23
298.25482
33
-1199.9999
0
3DFACE
8
0
10
400.0
20
400.0
30
-1200.0
11
399.98477
21
298.25473
31
-1200.0
12
399.9391
22
296.51004
32
-1200.0
13
399.93918
23
296.51013
33
-1199.9999
0
3DFACE
8
0
10
400.0
20
400.0
30
-1200.0
11
399.9391
21
296.51004
31
-1200.0
12
399.86295
22
294.76642
32
-1200.0
13
399.86304
23
294.7665
33
-1199.9999
0
3DFACE
8
0
10
400.0
20
400.0
30
-1200.0
11
399.86295
21
294.76642
31
-1200.0
12
399.7564
22
293.02435
32
-1200.0
13
399.7565
23
293.02444
33
-1199.9999
0
3DFACE
8
0
10
400.0
20
400.0
30
-1200.0
11
399.7564
21
293.02435
31
-1200.0
12
399.61948
22
291.2844
32
-1200.0
13
399.61957
23
291.2845
33
-1199.9999
0
3DFACE
8
0
10
400.0
20
400.0
30
-1200.0
11
399.61948
21
291.2844
31
-1200.0
12
399.45218
22
289.54715
32
-1200.0
13
399.45227
23
289.54724
33
-1199.9999
0
3DFACE
8
0
10
400.0
20
400.0
30
-1200.0
11
399.45218
21
289.54715
31
-1200.0
12
399.2546
22
287.81305
32
-1200.0
13
399.2547
23
287.81314
33
-1199.9999
0
3DFACE
8
0
10
400.0
20
400.0
30
-1200.0
11
399.2546
21
287.81305
31
-1200.0
12
399.0268
22
286.0827
32
-1200.0
13
399.0269
23
286.0828
33
-1199.9999
0
3DFACE
8
0
10
400.0
20
400.0
30
-1200.0
11
399.0268
21
286.0827
31
-1200.0
12
398.76883
22
284.35657
32
-1200.0
13
398.76892
23
284.35666
33
-1199.9999
0
3DFACE
8
0
10
400.0
20
400.0
30
-1200.0
11
398.76883
21
284.35657
31
-1200.0
12
398.48077
22
282.63516
32
-1200.0
13
398.48087
23
282.63525
33
-1199.9999
0
3DFACE
8
0
10
400.0
20
400.0
30
-1200.0
11
398.48077
21
282.63516
31
-1200.0
12
398.16272
22
280.9191
32
-1200.0
13
398.1628
23
280.9192
33
-1199.9999
0
3DFACE
8
0
10
400.0
20
400.0
30
-1200.0
11
398.16272
21
280.9191
31
-1200.0
12
397.81476
22
279.20883
32
-1200.0
13
397.81485
23
279.20892
33
-1199.9999
0
3DFACE
8
0
10
400.0
20
400.0
30
-1200.0
11
397.81476
21
279.20883
31
-1200.0
12
397.437
22
277.50488
32
-1200.0
13
397.4371
23
277.50497
33
-1199.9999
0
3DFACE
8
0
10
400.0
20
400.0
30
-1200.0
11
397.437
21
277.50488
31
-1200.0
12
397.02957
22
275.80783
32
-1200.0
13
397.02966
23
275.80792
33
-1199.9999
0
3DFACE
8
0
10
400.0
20
400.0
30
-1200.0
11
397.02957
21
275.80783
31
-1200.0
12
396.5926
22
274.11807
32
-1200.0
13
396.59268
23
274.11816
33
-1199.9999
0
3DFACE
8
0
10
400.0
20
400.0
30
-1200.0
11
396.5926
21
274.11807
31
-1200.0
12
396.12616
22
272.43625
32
-1200.0
13
396.12625
23
272.43634
33
-1199.9999
0
3DFACE
8
0
10
400.0
20
400.0
30
-1200.0
11
396.12616
21
272.43625
31
-1200.0
12
395.63046
22
270.76282
32
-1200.0
13
395.63055
23
270.7629
33
-1199.9999
0
3DFACE
8
0
10
400.0
20
400.0
30
-1200.0
11
395.63046
21
270.76282
31
-1200.0
12
395.10565
22
269.0983
32
-1200.0
13
395.10574
23
269.0984
33
-1199.9999
0
3DFACE
8
0
10
400.0
20
400.0
30
-1200.0
11
395.10565
21
269.0983
31
-1200.0
12
394.55188
22
267.4432
32
-1200.0
13
394.55197
23
267.4433
33
-1199.9999
0
3DFACE
8
0
10
400.0
20
400.0
30
-1200.0
11
394.55188
21
267.4432
31
-1200.0
12
393.96924
22
265.79797
32
-1200.0
13
393.96933
23
265.79807
33
-1199.9999
0
3DFACE
8
0
10
400.0
20
400.0
30
-1200.0
11
393.96924
21
265.79797
31
-1200.0
12
393.35803
22
264.1632
32
-1200.0
13
393.35812
23
264.1633
33
-1199.9999
0
3DFACE
8
0
10
400.0
20
400.0
30
-1200.0
11
393.35803
21
264.1632
31
-1200.0
12
392.71838
22
262.53934
32
-1200.0
13
392.71848
23
262.53943
33
-1199.9999
0
3DFACE
8
0
10
400.0
20
400.0
30
-1200.0
11
392.71838
21
262.53934
31
-1200.0
12
392.05048
22
260.92688
32
-1200.0
13
392.05057
23
260.92697
33
-1199.9999
0
3DFACE
8
0
10
400.0
20
400.0
30
-1200.0
11
392.05048
21
260.92688
31
-1200.0
12
391.35455
22
259.32635
32
-1200.0
13
391.35464
23
259.32645
33
-1199.9999
0
3DFACE
8
0
10
400.0
20
400.0
30
-1200.0
11
391.35455
21
259.32635
31
-1200.0
12
390.63077
22
257.73816
32
-1200.0
13
390.63086
23
257.73825
33
-1199.9999
0
3DFACE
8
0
10
400.0
20
400.0
30
-1200.0
11
390.63077
21
257.73816
31
-1200.0
12
389.8794
22
256.16287
32
-1200.0
13
389.8795
23
256.16296
33
-1199.9999
0
3DFACE
8
0
10
400.0
20
400.0
30
-1200.0
11
389.8794
21
256.16287
31
-1200.0
12
389.10065
22
254.60095
32
-1200.0
13
389.10074
23
254.60106
33
-1199.9999
0
3DFACE
8
0
10
400.0
20
400.0
30
-1200.0
11
389.10065
21
254.60095
31
-1200.0
12
388.29477
22
253.05286
32
-1200.0
13
388.29486
23
253.05296
33
-1199.9999
0
3DFACE
8
0
10
400.0
20
400.0
30
-1200.0
11
388.29477
21
253.05286
31
-1200.0
12
387.46198
22
251.51906
32
-1200.0
13
387.46207
23
251.51917
33
-1199.9999
0
3DFACE
8
0
10
400.0
20
400.0
30
-1200.0
11
387.46198
21
251.51906
31
-1200.0
12
386.60254
22
249.99998
32
-1200.0
13
386.60263
23
250.00009
33
-1199.9999
0
3DFACE
8
0
10
400.0
20
400.0
30
-1200.0
11
386.60254
21
249.99998
31
-1200.0
12
385.71674
22
248.49619
32
-1200.0
13
385.71683
23
248.49629
33
-1199.9999
0
3DFACE
8
0
10
400.0
20
400.0
30
-1200.0
11
385.71674
21
248.49619
31
-1200.0
12
384.8048
22
247.00807
32
-1200.0
13
384.8049
23
247.00818
33
-1199.9999
0
3DFACE
8
0
10
400.0
20
400.0
30
-1200.0
11
384.8048
21
247.00807
31
-1200.0
12
383.86707
22
245.5361
32
-1200.0
13
383.86716
23
245.53621
33
-1199.9999
0
3DFACE
8
0
10
400.0
20
400.0
30
-1200.0
11
383.86707
21
245.5361
31
-1200.0
12
382.90375
22
244.08069
32
-1200.0
13
382.90384
23
244.0808
33
-1199.9999
0
3DFACE
8
0
10
400.0
20
400.0
30
-1200.0
11
382.90375
21
244.08069
31
-1200.0
12
381.9152
22
242.64233
32
-1200.0
13
381.91528
23
242.64244
33
-1199.9999
0
3DFACE
8
0
10
400.0
20
400.0
30
-1200.0
11
381.9152
21
242.64233
31
-1200.0
12
380.9017
22
241.22147
32
-1200.0
13
380.9018
23
241.22157
33
-1199.9999
0
3DFACE
8
0
10
400.0
20
400.0
30
-1200.0
11
380.9017
21
241.22147
31
-1200.0
12
379.86356
22
239.8185
32
-1200.0
13
379.86365
23
239.8186
33
-1199.9999
0
3DFACE
8
0
10
400.0
20
400.0
30
-1200.0
11
379.86356
21
239.8185
31
-1200.0
12
378.8011
22
238.43387
32
-1200.0
13
378.80118
23
238.43398
33
-1199.9999
0
3DFACE
8
0
10
400.0
20
400.0
30
-1200.0
11
378.8011
21
238.43387
31
-1200.0
12
377.71457
22
237.06793
32
-1200.0
13
377.71466
23
237.06804
33
-1199.9999
0
3DFACE
8
0
10
400.0
20
400.0
30
-1200.0
11
377.71457
21
237.06793
31
-1200.0
12
376.60443
22
235.72122
32
-1200.0
13
376.60452
23
235.72133
33
-1199.9999
0
3DFACE
8
0
10
400.0
20
400.0
30
-1200.0
11
376.60443
21
235.72122
31
-1200.0
12
375.47095
22
234.39409
32
-1200.0
13
375.47104
23
234.3942
33
-1199.9999
0
3DFACE
8
0
10
400.0
20
400.0
30
-1200.0
11
375.47095
21
234.39409
31
-1200.0
12
374.31448
22
233.08694
32
-1200.0
13
374.31458
23
233.08705
33
-1199.9999
0
3DFACE
8
0
10
400.0
20
400.0
30
-1200.0
11
374.31448
21
233.08694
31
-1200.0
12
373.13538
22
231.80017
32
-1200.0
13
373.13547
23
231.80028
33
-1199.9999
0
3DFACE
8
0
10
400.0
20
400.0
30
-1200.0
11
373.13538
21
231.80017
31
-1200.0
12
371.93396
22
230.53415
32
-1200.0
13
371.93405
23
230.53426
33
-1199.9999
0
3DFACE
8
0
10
400.0
20
400.0
30
-1200.0
11
371.93396
21
230.53415
31
-1200.0
12
370.71066
22
229.2893
32
-1200.0
13
370.71075
23
229.28941
33
-1199.9999
0
3DFACE
8
0
10
400.0
20
400.0
30
-1200.0
11
370.71066
21
229.2893
31
-1200.0
12
369.46582
22
228.06601
32
-1200.0
13
369.4659
23
228.06612
33
-1199.9999
0
3DFACE
8
0
10
400.0
20
400.0
30
-1200.0
11
369.46582
21
228.06601
31
-1200.0
12
368.19983
22
226.86464
32
-1200.0
13
368.19992
23
226.86475
33
-1199.9999
0
3DFACE
8
0
10
400.0
20
400.0
30
-1200.0
11
368.19983
21
226.86464
31
-1200.0
12
366.9131
22
225.68552
32
-1200.0
13
366.91318
23
225.68562
33
-1199.9999
0
3DFACE
8
0
10
400.0
20
400.0
30
-1200.0
11
366.9131
21
225.68552
31
-1200.0
12
365.6059
22
224.52902
32
-1200.0
13
365.606
23
224.52913
33
-1199.9999
0
3DFACE
8
0
10
400.0
20
400.0
30
-1200.0
11
365.6059
21
224.52902
31
-1200.0
12
364.27875
22
223.39555
32
-1200.0
13
364.27884
23
223.39566
33
-1199.9999
0
3DFACE
8
0
10
400.0
20
400.0
30
-1200.0
11
364.27875
21
223.39555
31
-1200.0
12
362.93204
22
222.2854
32
-1200.0
13
362.93213
23
222.2855
33
-1199.9999
0
3DFACE
8
0
10
400.0
20
400.0
30
-1200.0
11
362.93204
21
222.2854
31
-1200.0
12
361.56616
22
221.19893
32
-1200.0
13
361.56625
23
221.19904
33
-1199.9999
0
3DFACE
8
0
10
400.0
20
400.0
30
-1200.0
11
361.56616
21
221.19893
31
-1200.0
12
360.18152
22
220.13646
32
-1200.0
13
360.1816
23
220.13657
33
-1199.9999
0
3DFACE
8
0
10
400.0
20
400.0
30
-1200.0
11
360.18152
21
220.13646
31
-1200.0
12
358.7785
22
219.0983
32
-1200.0
13
358.7786
23
219.0984
33
-1199.9999
0
3DFACE
8
0
10
400.0
20
400.0
30
-1200.0
11
358.7785
21
219.0983
31
-1200.0
12
357.35764
22
218.08478
32
-1200.0
13
357.35773
23
218.08488
33
-1199.9999
0
3DFACE
8
0
10
400.0
20
400.0
30
-1200.0
11
357.35764
21
218.08478
31
-1200.0
12
355.91928
22
217.09624
32
-1200.0
13
355.91937
23
217.09634
33
-1199.9999
0
3DFACE
8
0
10
400.0
20
400.0
30
-1200.0
11
355.91928
21
217.09624
31
-1200.0
12
354.46393
22
216.13295
32
-1200.0
13
354.46402
23
216.13306
33
-1199.9999
0
3DFACE
8
0
10
400.0
20
400.0
30
-1200.0
11
354.46393
21
216.13295
31
-1200.0
12
352.99194
22
215.1952
32
-1200.0
13
352.99203
23
215.19531
33
-1199.9999
0
3DFACE
8
0
10
400.0
20
400.0
30
-1200.0
11
352.99194
21
215.1952
31
-1200.0
12
351.50378
22
214.28326
32
-1200.0
13
351.50388
23
214.28337
33
-1199.9999
0
3DFACE
8
0
10
400.0
20
400.0
30
-1200.0
11
351.50378
21
214.28326
31
-1200.0
12
350.0
22
213.39746
32
-1200.0
13
350.0001
23
213.39757
33
-1199.9999
0
3DFACE
8
0
10
400.0
20
400.0
30
-1200.0
11
350.0
21
213.39746
31
-1200.0
12
348.48096
22
212.53802
32
-1200.0
13
348.48105
23
212.53813
33
-1199.9999
0
3DFACE
8
0
10
400.0
20
400.0
30
-1200.0
11
348.48096
21
212.53802
31
-1200.0
12
346.94717
22
211.70525
32
-1200.0
13
346.94727
23
211.70535
33
-1199.9999
0
3DFACE
8
0
10
400.0
20
400.0
30
-1200.0
11
346.94717
21
211.70525
31
-1200.0
12
345.39902
22
210.89934
32
-1200.0
13
345.3991
23
210.89944
33
-1199.9999
0
3DFACE
8
0
10
400.0
20
400.0
30
-1200.0
11
345.39902
21
210.89934
31
-1200.0
12
343.8371
22
210.12059
32
-1200.0
13
343.8372
23
210.1207
33
-1199.9999
0
3DFACE
8
0
10
400.0
20
400.0
30
-1200.0
11
343.8371
21
210.12059
31
-1200.0
12
342.2618
22
209.36922
32
-1200.0
13
342.2619
23
209.36932
33
-1199.9999
0
3DFACE
8
0
10
400.0
20
400.0
30
-1200.0
11
342.2618
21
209.36922
31
-1200.0
12
340.67368
22
208.64545
32
-1200.0
13
340.67377
23
208.64555
33
-1199.9999
0
3DFACE
8
0
10
400.0
20
400.0
30
-1200.0
11
340.67368
21
208.64545
31
-1200.0
12
339.07312
22
207.94952
32
-1200.0
13
339.0732
23
207.94963
33
-1199.9999
0
3DFACE
8
0
10
400.0
20
400.0
30
-1200.0
11
339.07312
21
207.94952
31
-1200.0
12
337.46063
22
207.28162
32
-1200.0
13
337.46072
23
207.28172
33
-1199.9999
0
3DFACE
8
0
10
400.0
20
400.0
30
-1200.0
11
337.46063
21
207.28162
31
-1200.0
12
335.8368
22
206.64195
32
-1200.0
13
335.83688
23
206.64206
33
-1199.9999
0
3DFACE
8
0
10
400.0
20
400.0
30
-1200.0
11
335.8368
21
206.64195
31
-1200.0
12
334.20203
22
206.03073
32
-1200.0
13
334.20212
23
206.03084
33
-1199.9999
0
3DFACE
8
0
10
400.0
20
400.0
30
-1200.0
11
334.20203
21
206.03073
31
-1200.0
12
332.55682
22
205.44815
32
-1200.0
13
332.55692
23
205.44826
33
-1199.9999
0
3DFACE
8
0
10
400.0
20
400.0
30
-1200.0
11
332.55682
21
205.44815
31
-1200.0
12
330.9017
22
204.89435
32
-1200.0
13
330.9018
23
204.89445
33
-1199.9999
0
3DFACE
8
0
10
400.0
20
400.0
30
-1200.0
11
330.9017
21
204.89435
31
-1200.0
12
329.23715
22
204.3695
32
-1200.0
13
329.23724
23
204.36961
33
-1199.9999
0
3DFACE
8
0
10
400.0
20
400.0
30
-1200.0
11
329.23715
21
204.3695
31
-1200.0
12
327.56372
22
203.87383
32
-1200.0
13
327.5638
23
203.87393
33
-1199.9999
0
3DFACE
8
0
10
400.0
20
400.0
30
-1200.0
11
327.56372
21
203.87383
31
-1200.0
12
325.8819
22
203.40741
32
-1200.0
13
325.882
23
203.40752
33
-1199.9999
0
3DFACE
8
0
10
400.0
20
400.0
30
-1200.0
11
325.8819
21
203.40741
31
-1200.0
12
324.1922
22
202.97043
32
-1200.0
13
324.1923
23
202.97054
33
-1199.9999
0
3DFACE
8
0
10
400.0
20
400.0
30
-1200.0
11
324.1922
21
202.97043
31
-1200.0
12
322.49512
22
202.563
32
-1200.0
13
322.4952
23
202.56311
33
-1199.9999
0
3DFACE
8
0
10
400.0
20
400.0
30
-1200.0
11
322.49512
21
202.563
31
-1200.0
12
320.79114
22
202.18524
32
-1200.0
13
320.79123
23
202.18535
33
-1199.9999
0
3DFACE
8
0
10
400.0
20
400.0
30
-1200.0
11
320.79114
21
202.18524
31
-1200.0
12
319.08087
22
201.83728
32
-1200.0
13
319.08096
23
201.83739
33
-1199.9999
0
3DFACE
8
0
10
400.0
20
400.0
30
-1200.0
11
319.08087
21
201.83728
31
-1200.0
12
317.3648
22
201.51923
32
-1200.0
13
317.3649
23
201.51933
33
-1199.9999
0
3DFACE
8
0
10
400.0
20
400.0
30
-1200.0
11
317.3648
21
201.51923
31
-1200.0
12
315.64346
22
201.23117
32
-1200.0
13
315.64355
23
201.23128
33
-1199.9999
0
3DFACE
8
0
10
400.0
20
400.0
30
-1200.0
11
315.64346
21
201.23117
31
-1200.0
12
313.91733
22
200.9732
32
-1200.0
13
313.91742
23
200.97331
33
-1199.9999
0
3DFACE
8
0
10
400.0
20
400.0
30
-1200.0
11
313.91733
21
200.9732
31
-1200.0
12
312.18692
22
200.74538
32
-1200.0
13
312.187
23
200.74548
33
-1199.9999
0
3DFACE
8
0
10
400.0
20
400.0
30
-1200.0
11
312.18692
21
200.74538
31
-1200.0
12
310.45285
22
200.5478
32
-1200.0
13
310.45294
23
200.54791
33
-1199.9999
0
3DFACE
8
0
10
400.0
20
400.0
30
-1200.0
11
310.45285
21
200.5478
31
-1200.0
12
308.71558
22
200.38052
32
-1200.0
13
308.71567
23
200.38063
33
-1199.9999
0
3DFACE
8
0
10
400.0
20
400.0
30
-1200.0
11
308.71558
21
200.38052
31
-1200.0
12
306.97565
22
200.24359
32
-1200.0
13
306.97574
23
200.2437
33
-1199.9999
0
3DFACE
8
0
10
400.0
20
400.0
30
-1200.0
11
306.97565
21
200.24359
31
-1200.0
12
305.2336
22
200.13705
32
-1200.0
13
305.2337
23
200.13716
33
-1199.9999
0
3DFACE
8
0
10
400.0
20
400.0
30
-1200.0
11
305.2336
21
200.13705
31
-1200.0
12
303.48993
22
200.06091
32
-1200.0
13
303.49002
23
200.06102
33
-1199.9999
0
3DFACE
8
0
10
400.0
20
400.0
30
-1200.0
11
303.48993
21
200.06091
31
-1200.0
12
301.74524
22
200.01523
32
-1200.0
13
301.74533
23
200.01534
33
-1199.9999
0
3DFACE
8
0
10
400.0
20
400.0
30
-1200.0
11
301.74524
21
200.01523
31
-1200.0
12
300.0
22
200.0
32
-1200.0
13
300.0001
23
200.0001
33
-1199.9999
0
3DFACE
8
0
10
400.0
20
400.0
30
-1200.0
11
0.0
21
100.0
31
-1200.0
12
0.0
22
400.0
32
-1200.0
13
1.0E-4
23
400.0001
33
-1199.9999
0
3DFACE
8
0
10
0.0
20
400.0
30
-800.0
11
0.0
21
400.0
31
-1200.0
12
400.0
22
400.0
32
-800.0
13
400.0001
23
400.0001
33
-799.9999
0
3DFACE
8
0
10
0.0
20
400.0
30
-1200.0
11
400.0
21
400.0
31
-1200.0
12
400.0
22
400.0
32
-800.0
13
400.0001
23
400.0001
33
-799.9999
0
3DFACE
8
0
10
400.0
20
400.0
30
-800.0
11
400.0
21
400.0
31
-1200.0
12
400.0
22
300.0
32
-800.0
13
400.0001
23
300.0001
33
-799.9999
0
3DFACE
8
0
10
400.0
20
400.0
30
-1200.0
11
400.0
21
300.0
31
-1200.0
12
400.0
22
300.0
32
-800.0
13
400.0001
23
300.0001
33
-799.9999
0
3DFACE
8
0
10
400.0
20
300.0
30
-800.0
11
400.0
21
300.0
31
-1200.0
12
400.0
22
300.00003
32
-800.0
13
400.0001
23
300.00012
33
-799.9999
0
3DFACE
8
0
10
400.0
20
300.0
30
-1200.0
11
400.0
21
300.00003
31
-1200.0
12
400.0
22
300.00003
32
-800.0
13
400.0001
23
300.00012
33
-799.9999
0
3DFACE
8
0
10
400.0
20
300.00003
30
-800.0
11
400.0
21
300.00003
31
-1200.0
12
399.98477
22
298.25473
32
-800.0
13
399.98486
23
298.25482
33
-799.9999
0
3DFACE
8
0
10
400.0
20
300.00003
30
-1200.0
11
399.98477
21
298.25473
31
-1200.0
12
399.98477
22
298.25473
32
-800.0
13
399.98486
23
298.25482
33
-799.9999
0
3DFACE
8
0
10
399.98477
20
298.25473
30
-800.0
11
399.98477
21
298.25473
31
-1200.0
12
399.9391
22
296.51004
32
-800.0
13
399.93918
23
296.51013
33
-799.9999
0
3DFACE
8
0
10
399.98477
20
298.25473
30
-1200.0
11
399.9391
21
296.51004
31
-1200.0
12
399.9391
22
296.51004
32
-800.0
13
399.93918
23
296.51013
33
-799.9999
0
3DFACE
8
0
10
399.9391
20
296.51004
30
-800.0
11
399.9391
21
296.51004
31
-1200.0
12
399.86295
22
294.76642
32
-800.0
13
399.86304
23
294.7665
33
-799.9999
0
3DFACE
8
0
10
399.9391
20
296.51004
30
-1200.0
11
399.86295
21
294.76642
31
-1200.0
12
399.86295
22
294.76642
32
-800.0
13
399.86304
23
294.7665
33
-799.9999
0
3DFACE
8
0
10
399.86295
20
294.76642
30
-800.0
11
399.86295
21
294.76642
31
-1200.0
12
399.7564
22
293.02435
32
-800.0
13
399.7565
23
293.02444
33
-799.9999
0
3DFACE
8
0
10
399.86295
20
294.76642
30
-1200.0
11
399.7564
21
293.02435
31
-1200.0
12
399.7564
22
293.02435
32
-800.0
13
399.7565
23
293.02444
33
-799.9999
0
3DFACE
8
0
10
399.7564
20
293.02435
30
-800.0
11
399.7564
21
293.02435
31
-1200.0
12
399.61948
22
291.2844
32
-800.0
13
399.61957
23
291.2845
33
-799.9999
0
3DFACE
8
0
10
399.7564
20
293.02435
30
-1200.0
11
399.61948
21
291.2844
31
-1200.0
12
399.61948
22
291.2844
32
-800.0
13
399.61957
23
291.2845
33
-799.9999
0
3DFACE
8
0
10
399.61948
20
291.2844
30
-800.0
11
399.61948
21
291.2844
31
-1200.0
12
399.45218
22
289.54715
32
-800.0
13
399.45227
23
289.54724
33
-799.9999
0
3DFACE
8
0
10
399.61948
20
291.2844
30
-1200.0
11
399.45218
21
289.54715
31
-1200.0
12
399.45218
22
289.54715
32
-800.0
13
399.45227
23
289.54724
33
-799.9999
0
3DFACE
8
0
10
399.45218
20
289.54715
30
-800.0
11
399.45218
21
289.54715
31
-1200.0
12
399.2546
22
287.81305
32
-800.0
13
399.2547
23
287.81314
33
-799.9999
0
3DFACE
8
0
10
399.45218
20
289.54715
30
-1200.0
11
399.2546
21
287.81305
31
-1200.0
12
399.2546
22
287.81305
32
-800.0
13
399.2547
23
287.81314
33
-799.9999
0
3DFACE
8
0
10
399.2546
20
287.81305
30
-800.0
11
399.2546
21
287.81305
31
-1200.0
12
399.0268
22
286.0827
32
-800.0
13
399.0269
23
286.0828
33
-799.9999
0
3DFACE
8
0
10
399.2546
20
287.81305
30
-1200.0
11
399.0268
21
286.0827
31
-1200.0
12
399.0268
22
286.0827
32
-800.0
13
399.0269
23
286.0828
33
-799.9999
0
3DFACE
8
0
10
399.0268
20
286.0827
30
-800.0
11
399.0268
21
286.0827
31
-1200.0
12
398.76883
22
284.35657
32
-800.0
13
398.76892
23
284.35666
33
-799.9999
0
3DFACE
8
0
10
399.0268
20
286.0827
30
-1200.0
11
398.76883
21
284.35657
31
-1200.0
12
398.76883
22
284.35657
32
-800.0
13
398.76892
23
284.35666
33
-799.9999
0
3DFACE
8
0
10
398.76883
20
284.35657
30
-800.0
11
398.76883
21
284.35657
31
-1200.0
12
398.48077
22
282.63516
32
-800.0
13
398.48087
23
282.63525
33
-799.9999
0
3DFACE
8
0
10
398.76883
20
284.35657
30
-1200.0
11
398.48077
21
282.63516
31
-1200.0
12
398.48077
22
282.63516
32
-800.0
13
398.48087
23
282.63525
33
-799.9999
0
3DFACE
8
0
10
398.48077
20
282.63516
30
-800.0
11
398.48077
21
282.63516
31
-1200.0
12
398.16272
22
280.9191
32
-800.0
13
398.1628
23
280.9192
33
-799.9999
0
3DFACE
8
0
10
398.48077
20
282.63516
30
-1200.0
11
398.16272
21
280.9191
31
-1200.0
12
398.16272
22
280.9191
32
-800.0
13
398.1628
23
280.9192
33
-799.9999
0
3DFACE
8
0
10
398.16272
20
280.9191
30
-800.0
11
398.16272
21
280.9191
31
-1200.0
12
397.81476
22
279.20883
32
-800.0
13
397.81485
23
279.20892
33
-799.9999
0
3DFACE
8
0
10
398.16272
20
280.9191
30
-1200.0
11
397.81476
21
279.20883
31
-1200.0
12
397.81476
22
279.20883
32
-800.0
13
397.81485
23
279.20892
33
-799.9999
0
3DFACE
8
0
10
397.81476
20
279.20883
30
-800.0
11
397.81476
21
279.20883
31
-1200.0
12
397.437
22
277.50488
32
-800.0
13
397.4371
23
277.50497
33
-799.9999
0
3DFACE
8
0
10
397.81476
20
279.20883
30
-1200.0
11
397.437
21
277.50488
31
-1200.0
12
397.437
22
277.50488
32
-800.0
13
397.4371
23
277.50497
33
-799.9999
0
3DFACE
8
0
10
397.437
20
277.50488
30
-800.0
11
397.437
21
277.50488
31
-1200.0
12
397.02957
22
275.80783
32
-800.0
13
397.02966
23
275.80792
33
-799.9999
0
3DFACE
8
0
10
397.437
20
277.50488
30
-1200.0
11
397.02957
21
275.80783
31
-1200.0
12
397.02957
22
275.80783
32
-800.0
13
397.02966
23
275.80792
33
-799.9999
0
3DFACE
8
0
10
397.02957
20
275.80783
30
-800.0
11
397.02957
21
275.80783
31
-1200.0
12
396.5926
22
274.11807
32
-800.0
13
396.59268
23
274.11816
33
-799.9999
0
3DFACE
8
0
10
397.02957
20
275.80783
30
-1200.0
11
396.5926
21
274.11807
31
-1200.0
12
396.5926
22
274.11807
32
-800.0
13
396.59268
23
274.11816
33
-799.9999
0
3DFACE
8
0
10
396.5926
20
274.11807
30
-800.0
11
396.5926
21
274.11807
31
-1200.0
12
396.12616
22
272.43625
32
-800.0
13
396.12625
23
272.43634
33
-799.9999
0
3DFACE
8
0
10
396.5926
20
274.11807
30
-1200.0
11
396.12616
21
272.43625
31
-1200.0
12
396.12616
22
272.43625
32
-800.0
13
396.12625
23
272.43634
33
-799.9999
0
3DFACE
8
0
10
396.12616
20
272.43625
30
-800.0
11
396.12616
21
272.43625
31
-1200.0
12
395.63046
22
270.76282
32
-800.0
13
395.63055
23
270.7629
33
-799.9999
0
3DFACE
8
0
10
396.12616
20
272.43625
30
-1200.0
11
395.63046
21
270.76282
31
-1200.0
12
395.63046
22
270.76282
32
-800.0
13
395.63055
23
270.7629
33
-799.9999
0
3DFACE
8
0
10
395.63046
20
270.76282
30
-800.0
11
395.63046
21
270.76282
31
-1200.0
12
395.10565
22
269.0983
32
-800.0
13
395.10574
23
269.0984
33
-799.9999
0
3DFACE
8
0
10
395.63046
20
270.76282
30
-1200.0
11
395.10565
21
269.0983
31
-1200.0
12
395.10565
22
269.0983
32
-800.0
13
395.10574
23
269.0984
33
-799.9999
0
3DFACE
8
0
10
395.10565
20
269.0983
30
-800.0
11
395.10565
21
269.0983
31
-1200.0
12
394.55188
22
267.4432
32
-800.0
13
394.55197
23
267.4433
33
-799.9999
0
3DFACE
8
0
10
395.10565
20
269.0983
30
-1200.0
11
394.55188
21
267.4432
31
-1200.0
12
394.55188
22
267.4432
32
-800.0
13
394.55197
23
267.4433
33
-799.9999
0
3DFACE
8
0
10
394.55188
20
267.4432
30
-800.0
11
394.55188
21
267.4432
31
-1200.0
12
393.96924
22
265.79797
32
-800.0
13
393.96933
23
265.79807
33
-799.9999
0
3DFACE
8
0
10
394.55188
20
267.4432
30
-1200.0
11
393.96924
21
265.79797
31
-1200.0
12
393.96924
22
265.79797
32
-800.0
13
393.96933
23
265.79807
33
-799.9999
0
3DFACE
8
0
10
393.96924
20
265.79797
30
-800.0
11
393.96924
21
265.79797
31
-1200.0
12
393.35803
22
264.1632
32
-800.0
13
393.35812
23
264.1633
33
-799.9999
0
3DFACE
8
0
10
393.96924
20
265.79797
30
-1200.0
11
393.35803
21
264.1632
31
-1200.0
12
393.35803
22
264.1632
32
-800.0
13
393.35812
23
264.1633
33
-799.9999
0
3DFACE
8
0
10
393.35803
20
264.1632
30
-800.0
11
393.35803
21
264.1632
31
-1200.0
12
392.71838
22
262.53934
32
-800.0
13
392.71848
23
262.53943
33
-799.9999
0
3DFACE
8
0
10
393.35803
20
264.1632
30
-1200.0
11
392.71838
21
262.53934
31
-1200.0
12
392.71838
22
262.53934
32
-800.0
13
392.71848
23
262.53943
33
-799.9999
0
3DFACE
8
0
10
392.71838
20
262.53934
30
-800.0
11
392.71838
21
262.53934
31
-1200.0
12
392.05048
22
260.92688
32
-800.0
13
392.05057
23
260.92697
33
-799.9999
0
3DFACE
8
0
10
392.71838
20
262.53934
30
-1200.0
11
392.05048
21
260.92688
31
-1200.0
12
392.05048
22
260.92688
32
-800.0
13
392.05057
23
260.92697
33
-799.9999
0
3DFACE
8
0
10
392.05048
20
260.92688
30
-800.0
11
392.05048
21
260.92688
31
-1200.0
12
391.35455
22
259.32635
32
-800.0
13
391.35464
23
259.32645
33
-799.9999
0
3DFACE
8
0
10
392.05048
20
260.92688
30
-1200.0
11
391.35455
21
259.32635
31
-1200.0
12
391.35455
22
259.32635
32
-800.0
13
391.35464
23
259.32645
33
-799.9999
0
3DFACE
8
0
10
391.35455
20
259.32635
30
-800.0
11
391.35455
21
259.32635
31
-1200.0
12
390.63077
22
257.73816
32
-800.0
13
390.63086
23
257.73825
33
-799.9999
0
3DFACE
8
0
10
391.35455
20
259.32635
30
-1200.0
11
390.63077
21
257.73816
31
-1200.0
12
390.63077
22
257.73816
32
-800.0
13
390.63086
23
257.73825
33
-799.9999
0
3DFACE
8
0
10
390.63077
20
257.73816
30
-800.0
11
390.63077
21
257.73816
31
-1200.0
12
389.8794
22
256.16287
32
-800.0
13
389.8795
23
256.16296
33
-799.9999
0
3DFACE
8
0
10
390.63077
20
257.73816
30
-1200.0
11
389.8794
21
256.16287
31
-1200.0
12
389.8794
22
256.16287
32
-800.0
13
389.8795
23
256.16296
33
-799.9999
0
3DFACE
8
0
10
389.8794
20
256.16287
30
-800.0
11
389.8794
21
256.16287
31
-1200.0
12
389.10065
22
254.60095
32
-800.0
13
389.10074
23
254.60106
33
-799.9999
0
3DFACE
8
0
10
389.8794
20
256.16287
30
-1200.0
11
389.10065
21
254.60095
31
-1200.0
12
389.10065
22
254.60095
32
-800.0
13
389.10074
23
254.60106
33
-799.9999
0
3DFACE
8
0
10
389.10065
20
254.60095
30
-800.0
11
389.10065
21
254.60095
31
-1200.0
12
388.29477
22
253.05286
32
-800.0
13
388.29486
23
253.05296
33
-799.9999
0
3DFACE
8
0
10
389.10065
20
254.60095
30
-1200.0
11
388.29477
21
253.05286
31
-1200.0
12
388.29477
22
253.05286
32
-800.0
13
388.29486
23
253.05296
33
-799.9999
0
3DFACE
8
0
10
388.29477
20
253.05286
30
-800.0
11
388.29477
21
253.05286
31
-1200.0
12
387.46198
22
251.51906
32
-800.0
13
387.46207
23
251.51917
33
-799.9999
0
3DFACE
8
0
10
388.29477
20
253.05286
30
-1200.0
11
387.46198
21
251.51906
31
-1200.0
12
387.46198
22
251.51906
32
-800.0
13
387.46207
23
251.51917
33
-799.9999
0
3DFACE
8
0
10
387.46198
20
251.51906
30
-800.0
11
387.46198
21
251.51906
31
-1200.0
12
386.60254
22
249.99998
32
-800.0
13
386.60263
23
250.00009
33
-799.9999
0
3DFACE
8
0
10
387.46198
20
251.51906
30
-1200.0
11
386.60254
21
249.99998
31
-1200.0
12
386.60254
22
249.99998
32
-800.0
13
386.60263
23
250.00009
33
-799.9999
0
3DFACE
8
0
10
386.60254
20
249.99998
30
-800.0
11
386.60254
21
249.99998
31
-1200.0
12
385.71674
22
248.49619
32
-800.0
13
385.71683
23
248.49629
33
-799.9999
0
3DFACE
8
0
10
386.60254
20
249.99998
30
-1200.0
11
385.71674
21
248.49619
31
-1200.0
12
385.71674
22
248.49619
32
-800.0
13
385.71683
23
248.49629
33
-799.9999
0
3DFACE
8
0
10
385.71674
20
248.49619
30
-800.0
11
385.71674
21
248.49619
31
-1200.0
12
384.8048
22
247.00807
32
-800.0
13
384.8049
23
247.00818
33
-799.9999
0
3DFACE
8
0
10
385.71674
20
248.49619
30
-1200.0
11
384.8048
21
247.00807
31
-1200.0
12
384.8048
22
247.00807
32
-800.0
13
384.8049
23
247.00818
33
-799.9999
0
3DFACE
8
0
10
384.8048
20
247.00807
30
-800.0
11
384.8048
21
247.00807
31
-1200.0
12
383.86707
22
245.5361
32
-800.0
13
383.86716
23
245.53621
33
-799.9999
0
3DFACE
8
0
10
384.8048
20
247.00807
30
-1200.0
11
383.86707
21
245.5361
31
-1200.0
12
383.86707
22
245.5361
32
-800.0
13
383.86716
23
245.53621
33
-799.9999
0
3DFACE
8
0
10
383.86707
20
245.5361
30
-800.0
11
383.86707
21
245.5361
31
-1200.0
12
382.90375
22
244.08069
32
-800.0
13
382.90384
23
244.0808
33
-799.9999
0
3DFACE
8
0
10
383.86707
20
245.5361
30
-1200.0
11
382.90375
21
244.08069
31
-1200.0
12
382.90375
22
244.08069
32
-800.0
13
382.90384
23
244.0808
33
-799.9999
0
3DFACE
8
0
10
382.90375
20
244.08069
30
-800.0
11
382.90375
21
244.08069
31
-1200.0
12
381.9152
22
242.64233
32
-800.0
13
381.91528
23
242.64244
33
-799.9999
0
3DFACE
8
0
10
382.90375
20
244.08069
30
-1200.0
11
381.9152
21
242.64233
31
-1200.0
12
381.9152
22
242.64233
32
-800.0
13
381.91528
23
242.64244
33
-799.9999
0
3DFACE
8
0
10
381.9152
20
242.64233
30
-800.0
11
381.9152
21
242.64233
31
-1200.0
12
380.9017
22
241.22147
32
-800.0
13
380.9018
23
241.22157
33
-799.9999
0
3DFACE
8
0
10
381.9152
20
242.64233
30
-1200.0
11
380.9017
21
241.22147
31
-1200.0
12
380.9017
22
241.22147
32
-800.0
13
380.9018
23
241.22157
33
-799.9999
0
3DFACE
8
0
10
380.9017
20
241.22147
30
-800.0
11
380.9017
21
241.22147
31
-1200.0
12
379.86356
22
239.8185
32
-800.0
13
379.86365
23
239.8186
33
-799.9999
0
3DFACE
8
0
10
380.9017
20
241.22147
30
-1200.0
11
379.86356
21
239.8185
31
-1200.0
12
379.86356
22
239.8185
32
-800.0
13
379.86365
23
239.8186
33
-799.9999
0
3DFACE
8
0
10
379.86356
20
239.8185
30
-800.0
11
379.86356
21
239.8185
31
-1200.0
12
378.8011
22
238.43387
32
-800.0
13
378.80118
23
238.43398
33
-799.9999
0
3DFACE
8
0
10
379.86356
20
239.8185
30
-1200.0
11
378.8011
21
238.43387
31
-1200.0
12
378.8011
22
238.43387
32
-800.0
13
378.80118
23
238.43398
33
-799.9999
0
3DFACE
8
0
10
378.8011
20
238.43387
30
-800.0
11
378.8011
21
238.43387
31
-1200.0
12
377.71457
22
237.06793
32
-800.0
13
377.71466
23
237.06804
33
-799.9999
0
3DFACE
8
0
10
378.8011
20
238.43387
30
-1200.0
11
377.71457
21
237.06793
31
-1200.0
12
377.71457
22
237.06793
32
-800.0
13
377.71466
23
237.06804
33
-799.9999
0
3DFACE
8
0
10
377.71457
20
237.06793
30
-800.0
11
377.71457
21
237.06793
31
-1200.0
12
376.60443
22
235.72122
32
-800.0
13
376.60452
23
235.72133
33
-799.9999
0
3DFACE
8
0
10
377.71457
20
237.06793
30
-1200.0
11
376.60443
21
235.72122
31
-1200.0
12
376.60443
22
235.72122
32
-800.0
13
376.60452
23
235.72133
33
-799.9999
0
3DFACE
8
0
10
376.60443
20
235.72122
30
-800.0
11
376.60443
21
235.72122
31
-1200.0
12
375.47095
22
234.39409
32
-800.0
13
375.47104
23
234.3942
33
-799.9999
0
3DFACE
8
0
10
376.60443
20
235.72122
30
-1200.0
11
375.47095
21
234.39409
31
-1200.0
12
375.47095
22
234.39409
32
-800.0
13
375.47104
23
234.3942
33
-799.9999
0
3DFACE
8
0
10
375.47095
20
234.39409
30
-800.0
11
375.47095
21
234.39409
31
-1200.0
12
374.31448
22
233.08694
32
-800.0
13
374.31458
23
233.08705
33
-799.9999
0
3DFACE
8
0
10
375.47095
20
234.39409
30
-1200.0
11
374.31448
21
233.08694
31
-1200.0
12
374.31448
22
233.08694
32
-800.0
13
374.31458
23
233.08705
33
-799.9999
0
3DFACE
8
0
10
374.31448
20
233.08694
30
-800.0
11
374.31448
21
233.08694
31
-1200.0
12
373.13538
22
231.80017
32
-800.0
13
373.13547
23
231.80028
33
-799.9999
0
3DFACE
8
0
10
374.31448
20
233.08694
30
-1200.0
11
373.13538
21
231.80017
31
-1200.0
12
373.13538
22
231.80017
32
-800.0
13
373.13547
23
231.80028
33
-799.9999
0
3DFACE
8
0
10
373.13538
20
231.80017
30
-800.0
11
373.13538
21
231.80017
31
-1200.0
12
371.93396
22
230.53415
32
-800.0
13
371.93405
23
230.53426
33
-799.9999
0
3DFACE
8
0
10
373.13538
20
231.80017
30
-1200.0
11
371.93396
21
230.53415
31
-1200.0
12
371.93396
22
230.53415
32
-800.0
13
371.93405
23
230.53426
33
-799.9999
0
3DFACE
8
0
10
371.93396
20
230.53415
30
-800.0
11
371.93396
21
230.53415
31
-1200.0
12
370.71066
22
229.2893
32
-800.0
13
370.71075
23
229.28941
33
-799.9999
0
3DFACE
8
0
10
371.93396
20
230.53415
30
-1200.0
11
370.71066
21
229.2893
31
-1200.0
12
370.71066
22
229.2893
32
-800.0
13
370.71075
23
229.28941
33
-799.9999
0
3DFACE
8
0
10
370.71066
20
229.2893
30
-800.0
11
370.71066
21
229.2893
31
-1200.0
12
369.46582
22
228.06601
32
-800.0
13
369.4659
23
228.06612
33
-799.9999
0
3DFACE
8
0
10
370.71066
20
229.2893
30
-1200.0
11
369.46582
21
228.06601
31
-1200.0
12
369.46582
22
228.06601
32
-800.0
13
369.4659
23
228.06612
33
-799.9999
0
3DFACE
8
0
10
369.46582
20
228.06601
30
-800.0
11
369.46582
21
228.06601
31
-1200.0
12
368.19983
22
226.86464
32
-800.0
13
368.19992
23
226.86475
33
-799.9999
0
3DFACE
8
0
10
369.46582
20
228.06601
30
-1200.0
11
368.19983
21
226.86464
31
-1200.0
12
368.19983
22
226.86464
32
-800.0
13
368.19992
23
226.86475
33
-799.9999
0
3DFACE
8
0
10
368.19983
20
226.86464
30
-800.0
11
368.19983
21
226.86464
31
-1200.0
12
366.9131
22
225.68552
32
-800.0
13
366.91318
23
225.68562
33
-799.9999
0
3DFACE
8
0
10
368.19983
20
226.86464
30
-1200.0
11
366.9131
21
225.68552
31
-1200.0
12
366.9131
22
225.68552
32
-800.0
13
366.91318
23
225.68562
33
-799.9999
0
3DFACE
8
0
10
366.9131
20
225.68552
30
-800.0
11
366.9131
21
225.68552
31
-1200.0
12
365.6059
22
224.52902
32
-800.0
13
365.606
23
224.52913
33
-799.9999
0
3DFACE
8
0
10
366.9131
20
225.68552
30
-1200.0
11
365.6059
21
224.52902
31
-1200.0
12
365.6059
22
224.52902
32
-800.0
13
365.606
23
224.52913
33
-799.9999
0
3DFACE
8
0
10
365.6059
20
224.52902
30
-800.0
11
365.6059
21
224.52902
31
-1200.0
12
364.27875
22
223.39555
32
-800.0
13
364.27884
23
223.39566
33
-799.9999
0
3DFACE
8
0
10
365.6059
20
224.52902
30
-1200.0
11
364.27875
21
223.39555
31
-1200.0
12
364.27875
22
223.39555
32
-800.0
13
364.27884
23
223.39566
33
-799.9999
0
3DFACE
8
0
10
364.27875
20
223.39555
30
-800.0
11
364.27875
21
223.39555
31
-1200.0
12
362.93204
22
222.2854
32
-800.0
13
362.93213
23
222.2855
33
-799.9999
0
3DFACE
8
0
10
364.27875
20
223.39555
30
-1200.0
11
362.93204
21
222.2854
31
-1200.0
12
362.93204
22
222.2854
32
-800.0
13
362.93213
23
222.2855
33
-799.9999
0
3DFACE
8
0
10
362.93204
20
222.2854
30
-800.0
11
362.93204
21
222.2854
31
-1200.0
12
361.56616
22
221.19893
32
-800.0
13
361.56625
23
221.19904
33
-799.9999
0
3DFACE
8
0
10
362.93204
20
222.2854
30
-1200.0
11
361.56616
21
221.19893
31
-1200.0
12
361.56616
22
221.19893
32
-800.0
13
361.56625
23
221.19904
33
-799.9999
0
3DFACE
8
0
10
361.56616
20
221.19893
30
-800.0
11
361.56616
21
221.19893
31
-1200.0
12
360.18152
22
220.13646
32
-800.0
13
360.1816
23
220.13657
33
-799.9999
0
3DFACE
8
0
10
361.56616
20
221.19893
30
-1200.0
11
360.18152
21
220.13646
31
-1200.0
12
360.18152
22
220.13646
32
-800.0
13
360.1816
23
220.13657
33
-799.9999
0
3DFACE
8
0
10
360.18152
20
220.13646
30
-800.0
11
360.18152
21
220.13646
31
-1200.0
12
358.7785
22
219.0983
32
-800.0
13
358.7786
23
219.0984
33
-799.9999
0
3DFACE
8
0
10
360.18152
20
220.13646
30
-1200.0
11
358.7785
21
219.0983
31
-1200.0
12
358.7785
22
219.0983
32
-800.0
13
358.7786
23
219.0984
33
-799.9999
0
3DFACE
8
0
10
358.7785
20
219.0983
30
-800.0
11
358.7785
21
219.0983
31
-1200.0
12
357.35764
22
218.08478
32
-800.0
13
357.35773
23
218.08488
33
-799.9999
0
3DFACE
8
0
10
358.7785
20
219.0983
30
-1200.0
11
357.35764
21
218.08478
31
-1200.0
12
357.35764
22
218.08478
32
-800.0
13
357.35773
23
218.08488
33
-799.9999
0
3DFACE
8
0
10
357.35764
20
218.08478
30
-800.0
11
357.35764
21
218.08478
31
-1200.0
12
355.91928
22
217.09624
32
-800.0
13
355.91937
23
217.09634
33
-799.9999
0
3DFACE
8
0
10
357.35764
20
218.08478
30
-1200.0
11
355.91928
21
217.09624
31
-1200.0
12
355.91928
22
217.09624
32
-800.0
13
355.91937
23
217.09634
33
-799.9999
0
3DFACE
8
0
10
355.91928
20
217.09624
30
-800.0
11
355.91928
21
217.09624
31
-1200.0
12
354.46393
22
216.13295
32
-800.0
13
354.46402
23
216.13306
33
-799.9999
0
3DFACE
8
0
10
355.91928
20
217.09624
30
-1200.0
11
354.46393
21
216.13295
31
-1200.0
12
354.46393
22
216.13295
32
-800.0
13
354.46402
23
216.13306
33
-799.9999
0
3DFACE
8
0
10
354.46393
20
216.13295
30
-800.0
11
354.46393
21
216.13295
31
-1200.0
12
352.99194
22
215.1952
32
-800.0
13
352.99203
23
215.19531
33
-799.9999
0
3DFACE
8
0
10
354.46393
20
216.13295
30
-1200.0
11
352.99194
21
215.1952
31
-1200.0
12
352.99194
22
215.1952
32
-800.0
13
352.99203
23
215.19531
33
-799.9999
0
3DFACE
8
0
10
352.99194
20
215.1952
30
-800.0
11
352.99194
21
215.1952
31
-1200.0
12
351.50378
22
214.28326
32
-800.0
13
351.50388
23
214.28337
33
-799.9999
0
3DFACE
8
0
10
352.99194
20
215.1952
30
-1200.0
11
351.50378
21
214.28326
31
-1200.0
12
351.50378
22
214.28326
32
-800.0
13
351.50388
23
214.28337
33
-799.9999
0
3DFACE
8
0
10
351.50378
20
214.28326
30
-800.0
11
351.50378
21
214.28326
31
-1200.0
12
350.0
22
213.39746
32
-800.0
13
350.0001
23
213.39757
33
-799.9999
0
3DFACE
8
0
10
351.50378
20
214.28326
30
-1200.0
11
350.0
21
213.39746
31
-1200.0
12
350.0
22
213.39746
32
-800.0
13
350.0001
23
213.39757
33
-799.9999
0
3DFACE
8
0
10
350.0
20
213.39746
30
-800.0
11
350.0
21
213.39746
31
-1200.0
12
348.48096
22
212.53802
32
-800.0
13
348.48105
23
212.53813
33
-799.9999
0
3DFACE
8
0
10
350.0
20
213.39746
30
-1200.0
11
348.48096
21
212.53802
31
-1200.0
12
348.48096
22
212.53802
32
-800.0
13
348.48105
23
212.53813
33
-799.9999
0
3DFACE
8
0
10
348.48096
20
212.53802
30
-800.0
11
348.48096
21
212.53802
31
-1200.0
12
346.94717
22
211.70525
32
-800.0
13
346.94727
23
211.70535
33
-799.9999
0
3DFACE
8
0
10
348.48096
20
212.53802
30
-1200.0
11
346.94717
21
211.70525
31
-1200.0
12
346.94717
22
211.70525
32
-800.0
13
346.94727
23
211.70535
33
-799.9999
0
3DFACE
8
0
10
346.94717
20
211.70525
30
-800.0
11
346.94717
21
211.70525
31
-1200.0
12
345.39902
22
210.89934
32
-800.0
13
345.3991
23
210.89944
33
-799.9999
0
3DFACE
8
0
10
346.94717
20
211.70525
30
-1200.0
11
345.39902
21
210.89934
31
-1200.0
12
345.39902
22
210.89934
32
-800.0
13
345.3991
23
210.89944
33
-799.9999
0
3DFACE
8
0
10
345.39902
20
210.89934
30
-800.0
11
345.39902
21
210.89934
31
-1200.0
12
343.8371
22
210.12059
32
-800.0
13
343.8372
23
210.1207
33
-799.9999
0
3DFACE
8
0
10
345.39902
20
210.89934
30
-1200.0
11
343.8371
21
210.12059
31
-1200.0
12
343.8371
22
210.12059
32
-800.0
13
343.8372
23
210.1207
33
-799.9999
0
3DFACE
8
0
10
343.8371
20
210.12059
30
-800.0
11
343.8371
21
210.12059
31
-1200.0
12
342.2618
22
209.36922
32
-800.0
13
342.2619
23
209.36932
33
-799.9999
0
3DFACE
8
0
10
343.8371
20
210.12059
30
-1200.0
11
342.2618
21
209.36922
31
-1200.0
12
342.2618
22
209.36922
32
-800.0
13
342.2619
23
209.36932
33
-799.9999
0
3DFACE
8
0
10
342.2618
20
209.36922
30
-800.0
11
342.2618
21
209.36922
31
-1200.0
12
340.67368
22
208.64545
32
-800.0
13
340.67377
23
208.64555
33
-799.9999
0
3DFACE
8
0
10
342.2618
20
209.36922
30
-1200.0
11
340.67368
21
208.64545
31
-1200.0
12
340.67368
22
208.64545
32
-800.0
13
340.67377
23
208.64555
33
-799.9999
0
3DFACE
8
0
10
340.67368
20
208.64545
30
-800.0
11
340.67368
21
208.64545
31
-1200.0
12
339.07312
22
207.94952
32
-800.0
13
339.0732
23
207.94963
33
-799.9999
0
3DFACE
8
0
10
340.67368
20
208.64545
30
-1200.0
11
339.07312
21
207.94952
31
-1200.0
12
339.07312
22
207.94952
32
-800.0
13
339.0732
23
207.94963
33
-799.9999
0
3DFACE
8
0
10
339.07312
20
207.94952
30
-800.0
11
339.07312
21
207.94952
31
-1200.0
12
337.46063
22
207.28162
32
-800.0
13
337.46072
23
207.28172
33
-799.9999
0
3DFACE
8
0
10
339.07312
20
207.94952
30
-1200.0
11
337.46063
21
207.28162
31
-1200.0
12
337.46063
22
207.28162
32
-800.0
13
337.46072
23
207.28172
33
-799.9999
0
3DFACE
8
0
10
337.46063
20
207.28162
30
-800.0
11
337.46063
21
207.28162
31
-1200.0
12
335.8368
22
206.64195
32
-800.0
13
335.83688
23
206.64206
33
-799.9999
0
3DFACE
8
0
10
337.46063
20
207.28162
30
-1200.0
11
335.8368
21
206.64195
31
-1200.0
12
335.8368
22
206.64195
32
-800.0
13
335.83688
23
206.64206
33
-799.9999
0
3DFACE
8
0
10
335.8368
20
206.64195
30
-800.0
11
335.8368
21
206.64195
31
-1200.0
12
334.20203
22
206.03073
32
-800.0
13
334.20212
23
206.03084
33
-799.9999
0
3DFACE
8
0
10
335.8368
20
206.64195
30
-1200.0
11
334.20203
21
206.03073
31
-1200.0
12
334.20203
22
206.03073
32
-800.0
13
334.20212
23
206.03084
33
-799.9999
0
3DFACE
8
0
10
334.20203
20
206.03073
30
-800.0
11
334.20203
21
206.03073
31
-1200.0
12
332.55682
22
205.44815
32
-800.0
13
332.55692
23
205.44826
33
-799.9999
0
3DFACE
8
0
10
334.20203
20
206.03073
30
-1200.0
11
332.55682
21
205.44815
31
-1200.0
12
332.55682
22
205.44815
32
-800.0
13
332.55692
23
205.44826
33
-799.9999
0
3DFACE
8
0
10
332.55682
20
205.44815
30
-800.0
11
332.55682
21
205.44815
31
-1200.0
12
330.9017
22
204.89435
32
-800.0
13
330.9018
23
204.89445
33
-799.9999
0
3DFACE
8
0
10
332.55682
20
205.44815
30
-1200.0
11
330.9017
21
204.89435
31
-1200.0
12
330.9017
22
204.89435
32
-800.0
13
330.9018
23
204.89445
33
-799.9999
0
3DFACE
8
0
10
330.9017
20
204.89435
30
-800.0
11
330.9017
21
204.89435
31
-1200.0
12
329.23715
22
204.3695
32
-800.0
13
329.23724
23
204.36961
33
-799.9999
0
3DFACE
8
0
10
330.9017
20
204.89435
30
-1200.0
11
329.23715
21
204.3695
31
-1200.0
12
329.23715
22
204.3695
32
-800.0
13
329.23724
23
204.36961
33
-799.9999
0
3DFACE
8
0
10
329.23715
20
204.3695
30
-800.0
11
329.23715
21
204.3695
31
-1200.0
12
327.56372
22
203.87383
32
-800.0
13
327.5638
23
203.87393
33
-799.9999
0
3DFACE
8
0
10
329.23715
20
204.3695
30
-1200.0
11
327.56372
21
203.87383
31
-1200.0
12
327.56372
22
203.87383
32
-800.0
13
327.5638
23
203.87393
33
-799.9999
0
3DFACE
8
0
10
327.56372
20
203.87383
30
-800.0
11
327.56372
21
203.87383
31
-1200.0
12
325.8819
22
203.40741
32
-800.0
13
325.882
23
203.40752
33
-799.9999
0
3DFACE
8
0
10
327.56372
20
203.87383
30
-1200.0
11
325.8819
21
203.40741
31
-1200.0
12
325.8819
22
203.40741
32
-800.0
13
325.882
23
203.40752
33
-799.9999
0
3DFACE
8
0
10
325.8819
20
203.40741
30
-800.0
11
325.8819
21
203.40741
31
-1200.0
12
324.1922
22
202.97043
32
-800.0
13
324.1923
23
202.97054
33
-799.9999
0
3DFACE
8
0
10
325.8819
20
203.40741
30
-1200.0
11
324.1922
21
202.97043
31
-1200.0
12
324.1922
22
202.97043
32
-800.0
13
324.1923
23
202.97054
33
-799.9999
0
3DFACE
8
0
10
324.1922
20
202.97043
30
-800.0
11
324.1922
21
202.97043
31
-1200.0
12
322.49512
22
202.563
32
-800.0
13
322.4952
23
202.56311
33
-799.9999
0
3DFACE
8
0
10
324.1922
20
202.97043
30
-1200.0
11
322.49512
21
202.563
31
-1200.0
12
322.49512
22
202.563
32
-800.0
13
322.4952
23
202.56311
33
-799.9999
0
3DFACE
8
0
10
322.49512
20
202.563
30
-800.0
11
322.49512
21
202.563
31
-1200.0
12
320.79114
22
202.18524
32
-800.0
13
320.79123
23
202.18535
33
-799.9999
0
3DFACE
8
0
10
322.49512
20
202.563
30
-1200.0
11
320.79114
21
202.18524
31
-1200.0
12
320.79114
22
202.18524
32
-800.0
13
320.79123
23
202.18535
33
-799.9999
0
3DFACE
8
0
10
320.79114
20
202.18524
30
-800.0
11
320.79114
21
202.18524
31
-1200.0
12
319.08087
22
201.83728
32
-800.0
13
319.08096
23
201.83739
33
-799.9999
0
3DFACE
8
0
10
320.79114
20
202.18524
30
-1200.0
11
319.08087
21
201.83728
31
-1200.0
12
319.08087
22
201.83728
32
-800.0
13
319.08096
23
201.83739
33
-799.9999
0
3DFACE
8
0
10
319.08087
20
201.83728
30
-800.0
11
319.08087
21
201.83728
31
-1200.0
12
317.3648
22
201.51923
32
-800.0
13
317.3649
23
201.51933
33
-799.9999
0
3DFACE
8
0
10
319.08087
20
201.83728
30
-1200.0
11
317.3648
21
201.51923
31
-1200.0
12
317.3648
22
201.51923
32
-800.0
13
317.3649
23
201.51933
33
-799.9999
0
3DFACE
8
0
10
317.3648
20
201.51923
30
-800.0
11
317.3648
21
201.51923
31
-1200.0
12
315.64346
22
201.23117
32
-800.0
13
315.64355
23
201.23128
33
-799.9999
0
3DFACE
8
0
10
317.3648
20
201.51923
30
-1200.0
11
315.64346
21
201.23117
31
-1200.0
12
315.64346
22
201.23117
32
-800.0
13
315.64355
23
201.23128
33
-799.9999
0
3DFACE
8
0
10
315.64346
20
201.23117
30
-800.0
11
315.64346
21
201.23117
31
-1200.0
12
313.91733
22
200.9732
32
-800.0
13
313.91742
23
200.97331
33
-799.9999
0
3DFACE
8
0
10
315.64346
20
201.23117
30
-1200.0
11
313.91733
21
200.9732
31
-1200.0
12
313.91733
22
200.9732
32
-800.0
13
313.91742
23
200.97331
33
-799.9999
0
3DFACE
8
0
10
313.91733
20
200.9732
30
-800.0
11
313.91733
21
200.9732
31
-1200.0
12
312.18692
22
200.74538
32
-800.0
13
312.187
23
200.74548
33
-799.9999
0
3DFACE
8
0
10
313.91733
20
200.9732
30
-1200.0
11
312.18692
21
200.74538
31
-1200.0
12
312.18692
22
200.74538
32
-800.0
13
312.187
23
200.74548
33
-799.9999
0
3DFACE
8
0
10
312.18692
20
200.74538
30
-800.0
11
312.18692
21
200.74538
31
-1200.0
12
310.45285
22
200.5478
32
-800.0
13
310.45294
23
200.54791
33
-799.9999
0
3DFACE
8
0
10
312.18692
20
200.74538
30
-1200.0
11
310.45285
21
200.5478
31
-1200.0
12
310.45285
22
200.5478
32
-800.0
13
310.45294
23
200.54791
33
-799.9999
0
3DFACE
8
0
10
310.45285
20
200.5478
30
-800.0
11
310.45285
21
200.5478
31
-1200.0
12
308.71558
22
200.38052
32
-800.0
13
308.71567
23
200.38063
33
-799.9999
0
3DFACE
8
0
10
310.45285
20
200.5478
30
-1200.0
11
308.71558
21
200.38052
31
-1200.0
12
308.71558
22
200.38052
32
-800.0
13
308.71567
23
200.38063
33
-799.9999
0
3DFACE
8
0
10
308.71558
20
200.38052
30
-800.0
11
308.71558
21
200.38052
31
-1200.0
12
306.97565
22
200.24359
32
-800.0
13
306.97574
23
200.2437
33
-799.9999
0
3DFACE
8
0
10
308.71558
20
200.38052
30
-1200.0
11
306.97565
21
200.24359
31
-1200.0
12
306.97565
22
200.24359
32
-800.0
13
306.97574
23
200.2437
33
-799.9999
0
3DFACE
8
0
10
306.97565
20
200.24359
30
-800.0
11
306.97565
21
200.24359
31
-1200.0
12
305.2336
22
200.13705
32
-800.0
13
305.2337
23
200.13716
33
-799.9999
0
3DFACE
8
0
10
306.97565
20
200.24359
30
-1200.0
11
305.2336
21
200.13705
31
-1200.0
12
305.2336
22
200.13705
32
-800.0
13
305.2337
23
200.13716
33
-799.9999
0
3DFACE
8
0
10
305.2336
20
200.13705
30
-800.0
11
305.2336
21
200.13705
31
-1200.0
12
303.48993
22
200.06091
32
-800.0
13
303.49002
23
200.06102
33
-799.9999
0
3DFACE
8
0
10
305.2336
20
200.13705
30
-1200.0
11
303.48993
21
200.06091
31
-1200.0
12
303.48993
22
200.06091
32
-800.0
13
303.49002
23
200.06102
33
-799.9999
0
3DFACE
8
0
10
303.48993
20
200.06091
30
-800.0
11
303.48993
21
200.06091
31
-1200.0
12
301.74524
22
200.01523
32
-800.0
13
301.74533
23
200.01534
33
-799.9999
0
3DFACE
8
0
10
303.48993
20
200.06091
30
-1200.0
11
301.74524
21
200.01523
31
-1200.0
12
301.74524
22
200.01523
32
-800.0
13
301.74533
23
200.01534
33
-799.9999
0
3DFACE
8
0
10
301.74524
20
200.01523
30
-800.0
11
301.74524
21
200.01523
31
-1200.0
12
300.0
22
200.0
32
-800.0
13
300.0001
23
200.0001
33
-799.9999
0
3DFACE
8
0
10
301.74524
20
200.01523
30
-1200.0
11
300.0
21
200.0
31
-1200.0
12
300.0
22
200.0
32
-800.0
13
300.0001
23
200.0001
33
-799.9999
0
3DFACE
8
0
10
300.0
20
200.0
30
-800.0
11
300.0
21
200.0
31
-1200.0
12
200.0
22
200.0
32
-800.0
13
200.0001
23
200.0001
33
-799.9999
0
3DFACE
8
0
10
300.0
20
200.0
30
-1200.0
11
200.0
21
200.0
31
-1200.0
12
200.0
22
200.0
32
-800.0
13
200.0001
23
200.0001
33
-799.9999
0
3DFACE
8
0
10
200.0
20
200.0
30
-800.0
11
200.0
21
200.0
31
-1200.0
12
200.0
22
0.0
32
-800.0
13
200.0001
23
1.0E-4
33
-799.9999
0
3DFACE
8
0
10
200.0
20
200.0
30
-1200.0
11
200.0
21
0.0
31
-1200.0
12
200.0
22
0.0
32
-800.0
13
200.0001
23
1.0E-4
33
-799.9999
0
3DFACE
8
0
10
200.0
20
0.0
30
-800.0
11
200.0
21
0.0
31
-1200.0
12
100.0
22
0.0
32
-800.0
13
100.0001
23
1.0E-4
33
-799.9999
0
3DFACE
8
0
10
200.0
20
0.0
30
-1200.0
11
100.0
21
0.0
31
-1200.0
12
100.0
22
0.0
32
-800.0
13
100.0001
23
1.0E-4
33
-799.9999
0
3DFACE
8
0
10
100.0
20
0.0
30
-800.0
11
100.0
21
0.0
31
-1200.0
12
0.0
22
100.0
32
-800.0
13
1.0E-4
23
100.0001
33
-799.9999
0
3DFACE
8
0
10
100.0
20
0.0
30
-1200.0
11
0.0
21
100.0
31
-1200.0
12
0.0
22
100.0
32
-800.0
13
1.0E-4
23
100.0001
33
-799.9999
0
3DFACE
8
0
10
0.0
20
100.0
30
-800.0
11
0.0
21
100.0
31
-1200.0
12
0.0
22
400.0
32
-800.0
13
1.0E-4
23
400.0001
33
-799.9999
0
3DFACE
8
0
10
0.0
20
100.0
30
-1200.0
11
0.0
21
400.0
31
-1200.0
12
0.0
22
400.0
32
-800.0
13
1.0E-4
23
400.0001
33
-799.9999
0
LINE
8
0
10
0.0
20
400.0
30
-800.0
11
400.0
21
400.0
31
-800.0
0
LINE
8
0
10
400.0
20
400.0
30
-800.0
11
400.0
21
300.0
31
-800.0
0
LINE
8
0
10
400.0
20
300.0
30
-800.0
11
400.0
21
300.00003
31
-800.0
0
LINE
8
0
10
400.0
20
300.00003
30
-800.0
11
399.98477
21
298.25473
31
-800.0
0
LINE
8
0
10
399.98477
20
298.25473
30
-800.0
11
399.9391
21
296.51004
31
-800.0
0
LINE
8
0
10
399.9391
20
296.51004
30
-800.0
11
399.86295
21
294.76642
31
-800.0
0
LINE
8
0
10
399.86295
20
294.76642
30
-800.0
11
399.7564
21
293.02435
31
-800.0
0
LINE
8
0
10
399.7564
20
293.02435
30
-800.0
11
399.61948
21
291.2844
31
-800.0
0
LINE
8
0
10
399.61948
20
291.2844
30
-800.0
11
399.45218
21
289.54715
31
-800.0
0
LINE
8
0
10
399.45218
20
289.54715
30
-800.0
11
399.2546
21
287.81305
31
-800.0
0
LINE
8
0
10
399.2546
20
287.81305
30
-800.0
11
399.0268
21
286.0827
31
-800.0
0
LINE
8
0
10
399.0268
20
286.0827
30
-800.0
11
398.76883
21
284.35657
31
-800.0
0
LINE
8
0
10
398.76883
20
284.35657
30
-800.0
11
398.48077
21
282.63516
31
-800.0
0
LINE
8
0
10
398.48077
20
282.63516
30
-800.0
11
398.16272
21
280.9191
31
-800.0
0
LINE
8
0
10
398.16272
20
280.9191
30
-800.0
11
397.81476
21
279.20883
31
-800.0
0
LINE
8
0
10
397.81476
20
279.20883
30
-800.0
11
397.437
21
277.50488
31
-800.0
0
LINE
8
0
10
397.437
20
277.50488
30
-800.0
11
397.02957
21
275.80783
31
-800.0
0
LINE
8
0
10
397.02957
20
275.80783
30
-800.0
11
396.5926
21
274.11807
31
-800.0
0
LINE
8
0
10
396.5926
20
274.11807
30
-800.0
11
396.12616
21
272.43625
31
-800.0
0
LINE
8
0
10
396.12616
20
272.43625
30
-800.0
11
395.63046
21
270.76282
31
-800.0
0
LINE
8
0
10
395.63046
20
270.76282
30
-800.0
11
395.10565
21
269.0983
31
-800.0
0
LINE
8
0
10
395.10565
20
269.0983
30
-800.0
11
394.55188
21
267.4432
31
-800.0
0
LINE
8
0
10
394.55188
20
267.4432
30
-800.0
11
393.96924
21
265.79797
31
-800.0
0
LINE
8
0
10
393.96924
20
265.79797
30
-800.0
11
393.35803
21
264.1632
31
-800.0
0
LINE
8
0
10
393.35803
20
264.1632
30
-800.0
11
392.71838
21
262.53934
31
-800.0
0
LINE
8
0
10
392.71838
20
262.53934
30
-800.0
11
392.05048
21
260.92688
31
-800.0
0
LINE
8
0
10
392.05048
20
260.92688
30
-800.0
11
391.35455
21
259.32635
31
-800.0
0
LINE
8
0
10
391.35455
20
259.32635
30
-800.0
11
390.63077
21
257.73816
31
-800.0
0
LINE
8
0
10
390.63077
20
257.73816
30
-800.0
11
389.8794
21
256.16287
31
-800.0
0
LINE
8
0
10
389.8794
20
256.16287
30
-800.0
11
389.10065
21
254.60095
31
-800.0
0
LINE
8
0
10
389.10065
20
254.60095
30
-800.0
11
388.29477
21
253.05286
31
-800.0
0
LINE
8
0
10
388.29477
20
253.05286
30
-800.0
11
387.46198
21
251.51906
31
-800.0
0
LINE
8
0
10
387.46198
20
251.51906
30
-800.0
11
386.60254
21
249.99998
31
-800.0
0
LINE
8
0
10
386.60254
20
249.99998
30
-800.0
11
385.71674
21
248.49619
31
-800.0
0
LINE
8
0
10
385.71674
20
248.49619
30
-800.0
11
384.8048
21
247.00807
31
-800.0
0
LINE
8
0
10
384.8048
20
247.00807
30
-800.0
11
383.86707
21
245.5361
31
-800.0
0
LINE
8
0
10
383.86707
20
245.5361
30
-800.0
11
382.90375
21
244.08069
31
-800.0
0
LINE
8
0
10
382.90375
20
244.08069
30
-800.0
11
381.9152
21
242.64233
31
-800.0
0
LINE
8
0
10
381.9152
20
242.64233
30
-800.0
11
380.9017
21
241.22147
31
-800.0
0
LINE
8
0
10
380.9017
20
241.22147
30
-800.0
11
379.86356
21
239.8185
31
-800.0
0
LINE
8
0
10
379.86356
20
239.8185
30
-800.0
11
378.8011
21
238.43387
31
-800.0
0
LINE
8
0
10
378.8011
20
238.43387
30
-800.0
11
377.71457
21
237.06793
31
-800.0
0
LINE
8
0
10
377.71457
20
237.06793
30
-800.0
11
376.60443
21
235.72122
31
-800.0
0
LINE
8
0
10
376.60443
20
235.72122
30
-800.0
11
375.47095
21
234.39409
31
-800.0
0
LINE
8
0
10
375.47095
20
234.39409
30
-800.0
11
374.31448
21
233.08694
31
-800.0
0
LINE
8
0
10
374.31448
20
233.08694
30
-800.0
11
373.13538
21
231.80017
31
-800.0
0
LINE
8
0
10
373.13538
20
231.80017
30
-800.0
11
371.93396
21
230.53415
31
-800.0
0
LINE
8
0
10
371.93396
20
230.53415
30
-800.0
11
370.71066
21
229.2893
31
-800.0
0
LINE
8
0
10
370.71066
20
229.2893
30
-800.0
11
369.46582
21
228.06601
31
-800.0
0
LINE
8
0
10
369.46582
20
228.06601
30
-800.0
11
368.19983
21
226.86464
31
-800.0
0
LINE
8
0
10
368.19983
20
226.86464
30
-800.0
11
366.9131
21
225.68552
31
-800.0
0
LINE
8
0
10
366.9131
20
225.68552
30
-800.0
11
365.6059
21
224.52902
31
-800.0
0
LINE
8
0
10
365.6059
20
224.52902
30
-800.0
11
364.27875
21
223.39555
31
-800.0
0
LINE
8
0
10
364.27875
20
223.39555
30
-800.0
11
362.93204
21
222.2854
31
-800.0
0
LINE
8
0
10
362.93204
20
222.2854
30
-800.0
11
361.56616
21
221.19893
31
-800.0
0
LINE
8
0
10
361.56616
20
221.19893
30
-800.0
11
360.18152
21
220.13646
31
-800.0
0
LINE
8
0
10
360.18152
20
220.13646
30
-800.0
11
358.7785
21
219.0983
31
-800.0
0
LINE
8
0
10
358.7785
20
219.0983
30
-800.0
11
357.35764
21
218.08478
31
-800.0
0
LINE
8
0
10
357.35764
20
218.08478
30
-800.0
11
355.91928
21
217.09624
31
-800.0
0
LINE
8
0
10
355.91928
20
217.09624
30
-800.0
11
354.46393
21
216.13295
31
-800.0
0
LINE
8
0
10
354.46393
20
216.13295
30
-800.0
11
352.99194
21
215.1952
31
-800.0
0
LINE
8
0
10
352.99194
20
215.1952
30
-800.0
11
351.50378
21
214.28326
31
-800.0
0
LINE
8
0
10
351.50378
20
214.28326
30
-800.0
11
350.0
21
213.39746
31
-800.0
0
LINE
8
0
10
350.0
20
213.39746
30
-800.0
11
348.48096
21
212.53802
31
-800.0
0
LINE
8
0
10
348.48096
20
212.53802
30
-800.0
11
346.94717
21
211.70525
31
-800.0
0
LINE
8
0
10
346.94717
20
211.70525
30
-800.0
11
345.39902
21
210.89934
31
-800.0
0
LINE
8
0
10
345.39902
20
210.89934
30
-800.0
11
343.8371
21
210.12059
31
-800.0
0
LINE
8
0
10
343.8371
20
210.12059
30
-800.0
11
342.2618
21
209.36922
31
-800.0
0
LINE
8
0
10
342.2618
20
209.36922
30
-800.0
11
340.67368
21
208.64545
31
-800.0
0
LINE
8
0
10
340.67368
20
208.64545
30
-800.0
11
339.07312
21
207.94952
31
-800.0
0
LINE
8
0
10
339.07312
20
207.94952
30
-800.0
11
337.46063
21
207.28162
31
-800.0
0
LINE
8
0
10
337.46063
20
207.28162
30
-800.0
11
335.8368
21
206.64195
31
-800.0
0
LINE
8
0
10
335.8368
20
206.64195
30
-800.0
11
334.20203
21
206.03073
31
-800.0
0
LINE
8
0
10
334.20203
20
206.03073
30
-800.0
11
332.55682
21
205.44815
31
-800.0
0
LINE
8
0
10
332.55682
20
205.44815
30
-800.0
11
330.9017
21
204.89435
31
-800.0
0
LINE
8
0
10
330.9017
20
204.89435
30
-800.0
11
329.23715
21
204.3695
31
-800.0
0
LINE
8
0
10
329.23715
20
204.3695
30
-800.0
11
327.56372
21
203.87383
31
-800.0
0
LINE
8
0
10
327.56372
20
203.87383
30
-800.0
11
325.8819
21
203.40741
31
-800.0
0
LINE
8
0
10
325.8819
20
203.40741
30
-800.0
11
324.1922
21
202.97043
31
-800.0
0
LINE
8
0
10
324.1922
20
202.97043
30
-800.0
11
322.49512
21
202.563
31
-800.0
0
LINE
8
0
10
322.49512
20
202.563
30
-800.0
11
320.79114
21
202.18524
31
-800.0
0
LINE
8
0
10
320.79114
20
202.18524
30
-800.0
11
319.08087
21
201.83728
31
-800.0
0
LINE
8
0
10
319.08087
20
201.83728
30
-800.0
11
317.3648
21
201.51923
31
-800.0
0
LINE
8
0
10
317.3648
20
201.51923
30
-800.0
11
315.64346
21
201.23117
31
-800.0
0
LINE
8
0
10
315.64346
20
201.23117
30
-800.0
11
313.91733
21
200.9732
31
-800.0
0
LINE
8
0
10
313.91733
20
200.9732
30
-800.0
11
312.18692
21
200.74538
31
-800.0
0
LINE
8
0
10
312.18692
20
200.74538
30
-800.0
11
310.45285
21
200.5478
31
-800.0
0
LINE
8
0
10
310.45285
20
200.5478
30
-800.0
11
308.71558
21
200.38052
31
-800.0
0
LINE
8
0
10
308.71558
20
200.38052
30
-800.0
11
306.97565
21
200.24359
31
-800.0
0
LINE
8
0
10
306.97565
20
200.24359
30
-800.0
11
305.2336
21
200.13705
31
-800.0
0
LINE
8
0
10
305.2336
20
200.13705
30
-800.0
11
303.48993
21
200.06091
31
-800.0
0
LINE
8
0
10
303.48993
20
200.06091
30
-800.0
11
301.74524
21
200.01523
31
-800.0
0
LINE
8
0
10
301.74524
20
200.01523
30
-800.0
11
300.0
21
200.0
31
-800.0
0
LINE
8
0
10
300.0
20
200.0
30
-800.0
11
200.0
21
200.0
31
-800.0
0
LINE
8
0
10
200.0
20
200.0
30
-800.0
11
200.0
21
0.0
31
-800.0
0
LINE
8
0
10
200.0
20
0.0
30
-800.0
11
100.0
21
0.0
31
-800.0
0
LINE
8
0
10
100.0
20
0.0
30
-800.0
11
0.0
21
100.0
31
-800.0
0
LINE
8
0
10
0.0
20
100.0
30
-800.0
11
0.0
21
400.0
31
-800.0
0
LINE
8
0
10
0.0
20
400.0
30
-1200.0
11
400.0
21
400.0
31
-1200.0
0
LINE
8
0
10
400.0
20
400.0
30
-1200.0
11
400.0
21
300.0
31
-1200.0
0
LINE
8
0
10
400.0
20
300.0
30
-1200.0
11
400.0
21
300.00003
31
-1200.0
0
LINE
8
0
10
400.0
20
300.00003
30
-1200.0
11
399.98477
21
298.25473
31
-1200.0
0
LINE
8
0
10
399.98477
20
298.25473
30
-1200.0
11
399.9391
21
296.51004
31
-1200.0
0
LINE
8
0
10
399.9391
20
296.51004
30
-1200.0
11
399.86295
21
294.76642
31
-1200.0
0
LINE
8
0
10
399.86295
20
294.76642
30
-1200.0
11
399.7564
21
293.02435
31
-1200.0
0
LINE
8
0
10
399.7564
20
293.02435
30
-1200.0
11
399.61948
21
291.2844
31
-1200.0
0
LINE
8
0
10
399.61948
20
291.2844
30
-1200.0
11
399.45218
21
289.54715
31
-1200.0
0
LINE
8
0
10
399.45218
20
289.54715
30
-1200.0
11
399.2546
21
287.81305
31
-1200.0
0
LINE
8
0
10
399.2546
20
287.81305
30
-1200.0
11
399.0268
21
286.0827
31
-1200.0
0
LINE
8
0
10
399.0268
20
286.0827
30
-1200.0
11
398.76883
21
284.35657
31
-1200.0
0
LINE
8
0
10
398.76883
20
284.35657
30
-1200.0
11
398.48077
21
282.63516
31
-1200.0
0
LINE
8
0
10
398.48077
20
282.63516
30
-1200.0
11
398.16272
21
280.9191
31
-1200.0
0
LINE
8
0
10
398.16272
20
280.9191
30
-1200.0
11
397.81476
21
279.20883
31
-1200.0
0
LINE
8
0
10
397.81476
20
279.20883
30
-1200.0
11
397.437
21
277.50488
31
-1200.0
0
LINE
8
0
10
397.437
20
277.50488
30
-1200.0
11
397.02957
21
275.80783
31
-1200.0
0
LINE
8
0
10
397.02957
20
275.80783
30
-1200.0
11
396.5926
21
274.11807
31
-1200.0
0
LINE
8
0
10
396.5926
20
274.11807
30
-1200.0
11
396.12616
21
272.43625
31
-1200.0
0
LINE
8
0
10
396.12616
20
272.43625
30
-1200.0
11
395.63046
21
270.76282
31
-1200.0
0
LINE
8
0
10
395.63046
20
270.76282
30
-1200.0
11
395.10565
21
269.0983
31
-1200.0
0
LINE
8
0
10
395.10565
20
269.0983
30
-1200.0
11
394.55188
21
267.4432
31
-1200.0
0
LINE
8
0
10
394.55188
20
267.4432
30
-1200.0
11
393.96924
21
265.79797
31
-1200.0
0
LINE
8
0
10
393.96924
20
265.79797
30
-1200.0
11
393.35803
21
264.1632
31
-1200.0
0
LINE
8
0
10
393.35803
20
264.1632
30
-1200.0
11
392.71838
21
262.53934
31
-1200.0
0
LINE
8
0
10
392.71838
20
262.53934
30
-1200.0
11
392.05048
21
260.92688
31
-1200.0
0
LINE
8
0
10
392.05048
20
260.92688
30
-1200.0
11
391.35455
21
259.32635
31
-1200.0
0
LINE
8
0
10
391.35455
20
259.32635
30
-1200.0
11
390.63077
21
257.73816
31
-1200.0
0
LINE
8
0
10
390.63077
20
257.73816
30
-1200.0
11
389.8794
21
256.16287
31
-1200.0
0
LINE
8
0
10
389.8794
20
256.16287
30
-1200.0
11
389.10065
21
254.60095
31
-1200.0
0
LINE
8
0
10
389.10065
20
254.60095
30
-1200.0
11
388.29477
21
253.05286
31
-1200.0
0
LINE
8
0
10
388.29477
20
253.05286
30
-1200.0
11
387.46198
21
251.51906
31
-1200.0
0
LINE
8
0
10
387.46198
20
251.51906
30
-1200.0
11
386.60254
21
249.99998
31
-1200.0
0
LINE
8
0
10
386.60254
20
249.99998
30
-1200.0
11
385.71674
21
248.49619
31
-1200.0
0
LINE
8
0
10
385.71674
20
248.49619
30
-1200.0
11
384.8048
21
247.00807
31
-1200.0
0
LINE
8
0
10
384.8048
20
247.00807
30
-1200.0
11
383.86707
21
245.5361
31
-1200.0
0
LINE
8
0
10
383.86707
20
245.5361
30
-1200.0
11
382.90375
21
244.08069
31
-1200.0
0
LINE
8
0
10
382.90375
20
244.08069
30
-1200.0
11
381.9152
21
242.64233
31
-1200.0
0
LINE
8
0
10
381.9152
20
242.64233
30
-1200.0
11
380.9017
21
241.22147
31
-1200.0
0
LINE
8
0
10
380.9017
20
241.22147
30
-1200.0
11
379.86356
21
239.8185
31
-1200.0
0
LINE
8
0
10
379.86356
20
239.8185
30
-1200.0
11
378.8011
21
238.43387
31
-1200.0
0
LINE
8
0
10
378.8011
20
238.43387
30
-1200.0
11
377.71457
21
237.06793
31
-1200.0
0
LINE
8
0
10
377.71457
20
237.06793
30
-1200.0
11
376.60443
21
235.72122
31
-1200.0
0
LINE
8
0
10
376.60443
20
235.72122
30
-1200.0
11
375.47095
21
234.39409
31
-1200.0
0
LINE
8
0
10
375.47095
20
234.39409
30
-1200.0
11
374.31448
21
233.08694
31
-1200.0
0
LINE
8
0
10
374.31448
20
233.08694
30
-1200.0
11
373.13538
21
231.80017
31
-1200.0
0
LINE
8
0
10
373.13538
20
231.80017
30
-1200.0
11
371.93396
21
230.53415
31
-1200.0
0
LINE
8
0
10
371.93396
20
230.53415
30
-1200.0
11
370.71066
21
229.2893
31
-1200.0
0
LINE
8
0
10
370.71066
20
229.2893
30
-1200.0
11
369.46582
21
228.06601
31
-1200.0
0
LINE
8
0
10
369.46582
20
228.06601
30
-1200.0
11
368.19983
21
226.86464
31
-1200.0
0
LINE
8
0
10
368.19983
20
226.86464
30
-1200.0
11
366.9131
21
225.68552
31
-1200.0
0
LINE
8
0
10
366.9131
20
225.68552
30
-1200.0
11
365.6059
21
224.52902
31
-1200.0
0
LINE
8
0
10
365.6059
20
224.52902
30
-1200.0
11
364.27875
21
223.39555
31
-1200.0
0
LINE
8
0
10
364.27875
20
223.39555
30
-1200.0
11
362.93204
21
222.2854
31
-1200.0
0
LINE
8
0
10
362.93204
20
222.2854
30
-1200.0
11
361.56616
21
221.19893
31
-1200.0
0
LINE
8
0
10
361.56616
20
221.19893
30
-1200.0
11
360.18152
21
220.13646
31
-1200.0
0
LINE
8
0
10
360.18152
20
220.13646
30
-1200.0
11
358.7785
21
219.0983
31
-1200.0
0
LINE
8
0
10
358.7785
20
219.0983
30
-1200.0
11
357.35764
21
218.08478
31
-1200.0
0
LINE
8
0
10
357.35764
20
218.08478
30
-1200.0
11
355.91928
21
217.09624
31
-1200.0
0
LINE
8
0
10
355.91928
20
217.09624
30
-1200.0
11
354.46393
21
216.13295
31
-1200.0
0
LINE
8
0
10
354.46393
20
216.13295
30
-1200.0
11
352.99194
21
215.1952
31
-1200.0
0
LINE
8
0
10
352.99194
20
215.1952
30
-1200.0
11
351.50378
21
214.28326
31
-1200.0
0
LINE
8
0
10
351.50378
20
214.28326
30
-1200.0
11
350.0
21
213.39746
31
-1200.0
0
LINE
8
0
10
350.0
20
213.39746
30
-1200.0
11
348.48096
21
212.53802
31
-1200.0
0
LINE
8
0
10
348.48096
20
212.53802
30
-1200.0
11
346.94717
21
211.70525
31
-1200.0
0
LINE
8
0
10
346.94717
20
211.70525
30
-1200.0
11
345.39902
21
210.89934
31
-1200.0
0
LINE
8
0
10
345.39902
20
210.89934
30
-1200.0
11
343.8371
21
210.12059
31
-1200.0
0
LINE
8
0
10
343.8371
20
210.12059
30
-1200.0
11
342.2618
21
209.36922
31
-1200.0
0
LINE
8
0
10
342.2618
20
209.36922
30
-1200.0
11
340.67368
21
208.64545
31
-1200.0
0
LINE
8
0
10
340.67368
20
208.64545
30
-1200.0
11
339.07312
21
207.94952
31
-1200.0
0
LINE
8
0
10
339.07312
20
207.94952
30
-1200.0
11
337.46063
21
207.28162
31
-1200.0
0
LINE
8
0
10
337.46063
20
207.28162
30
-1200.0
11
335.8368
21
206.64195
31
-1200.0
0
LINE
8
0
10
335.8368
20
206.64195
30
-1200.0
11
334.20203
21
206.03073
31
-1200.0
0
LINE
8
0
10
334.20203
20
206.03073
30
-1200.0
11
332.55682
21
205.44815
31
-1200.0
0
LINE
8
0
10
332.55682
20
205.44815
30
-1200.0
11
330.9017
21
204.89435
31
-1200.0
0
LINE
8
0
10
330.9017
20
204.89435
30
-1200.0
11
329.23715
21
204.3695
31
-1200.0
0
LINE
8
0
10
329.23715
20
204.3695
30
-1200.0
11
327.56372
21
203.87383
31
-1200.0
0
LINE
8
0
10
327.56372
20
203.87383
30
-1200.0
11
325.8819
21
203.40741
31
-1200.0
0
LINE
8
0
10
325.8819
20
203.40741
30
-1200.0
11
324.1922
21
202.97043
31
-1200.0
0
LINE
8
0
10
324.1922
20
202.97043
30
-1200.0
11
322.49512
21
202.563
31
-1200.0
0
LINE
8
0
10
322.49512
20
202.563
30
-1200.0
11
320.79114
21
202.18524
31
-1200.0
0
LINE
8
0
10
320.79114
20
202.18524
30
-1200.0
11
319.08087
21
201.83728
31
-1200.0
0
LINE
8
0
10
319.08087
20
201.83728
30
-1200.0
11
317.3648
21
201.51923
31
-1200.0
0
LINE
8
0
10
317.3648
20
201.51923
30
-1200.0
11
315.64346
21
201.23117
31
-1200.0
0
LINE
8
0
10
315.64346
20
201.23117
30
-1200.0
11
313.91733
21
200.9732
31
-1200.0
0
LINE
8
0
10
313.91733
20
200.9732
30
-1200.0
11
312.18692
21
200.74538
31
-1200.0
0
LINE
8
0
10
312.18692
20
200.74538
30
-1200.0
11
310.45285
21
200.5478
31
-1200.0
0
LINE
8
0
10
310.45285
20
200.5478
30
-1200.0
11
308.71558
21
200.38052
31
-1200.0
0
LINE
8
0
10
308.71558
20
200.38052
30
-1200.0
11
306.97565
21
200.24359
31
-1200.0
0
LINE
8
0
10
306.97565
20
200.24359
30
-1200.0
11
305.2336
21
200.13705
31
-1200.0
0
LINE
8
0
10
305.2336
20
200.13705
30
-1200.0
11
303.48993
21
200.06091
31
-1200.0
0
LINE
8
0
10
303.48993
20
200.06091
30
-1200.0
11
301.74524
21
200.01523
31
-1200.0
0
LINE
8
0
10
301.74524
20
200.01523
30
-1200.0
11
300.0
21
200.0
31
-1200.0
0
LINE
8
0
10
300.0
20
200.0
30
-1200.0
11
200.0
21
200.0
31
-1200.0
0
LINE
8
0
10
200.0
20
200.0
30
-1200.0
11
200.0
21
0.0
31
-1200.0
0
LINE
8
0
10
200.0
20
0.0
30
-1200.0
11
100.0
21
0.0
31
-1200.0
0
LINE
8
0
10
100.0
20
0.0
30
-1200.0
11
0.0
21
100.0
31
-1200.0
0
LINE
8
0
10
0.0
20
100.0
30
-1200.0
11
0.0
21
400.0
31
-1200.0
0
LINE
8
0
10
0.0
20
400.0
30
-800.0
11
0.0
21
400.0
31
-1200.0
0
LINE
8
0
10
0.0
20
400.0
30
-1200.0
11
400.0
21
400.0
31
-1200.0
0
LINE
8
0
10
400.0
20
400.0
30
-1200.0
11
400.0
21
400.0
31
-800.0
0
LINE
8
0
10
400.0
20
400.0
30
-800.0
11
0.0
21
400.0
31
-800.0
0
LINE
8
0
10
400.0
20
400.0
30
-800.0
11
400.0
21
400.0
31
-1200.0
0
LINE
8
0
10
400.0
20
400.0
30
-1200.0
11
400.0
21
300.0
31
-1200.0
0
LINE
8
0
10
400.0
20
300.0
30
-1200.0
11
400.0
21
300.0
31
-800.0
0
LINE
8
0
10
400.0
20
300.0
30
-800.0
11
400.0
21
400.0
31
-800.0
0
LINE
8
0
10
400.0
20
300.0
30
-800.0
11
400.0
21
300.0
31
-1200.0
0
LINE
8
0
10
400.0
20
300.0
30
-1200.0
11
400.0
21
300.00003
31
-1200.0
0
LINE
8
0
10
400.0
20
300.00003
30
-1200.0
11
400.0
21
300.00003
31
-800.0
0
LINE
8
0
10
400.0
20
300.00003
30
-800.0
11
400.0
21
300.0
31
-800.0
0
LINE
8
0
10
400.0
20
300.00003
30
-800.0
11
400.0
21
300.00003
31
-1200.0
0
LINE
8
0
10
400.0
20
300.00003
30
-1200.0
11
399.98477
21
298.25473
31
-1200.0
0
LINE
8
0
10
399.98477
20
298.25473
30
-1200.0
11
399.98477
21
298.25473
31
-800.0
0
LINE
8
0
10
399.98477
20
298.25473
30
-800.0
11
400.0
21
300.00003
31
-800.0
0
LINE
8
0
10
399.98477
20
298.25473
30
-800.0
11
399.98477
21
298.25473
31
-1200.0
0
LINE
8
0
10
399.98477
20
298.25473
30
-1200.0
11
399.9391
21
296.51004
31
-1200.0
0
LINE
8
0
10
399.9391
20
296.51004
30
-1200.0
11
399.9391
21
296.51004
31
-800.0
0
LINE
8
0
10
399.9391
20
296.51004
30
-800.0
11
399.98477
21
298.25473
31
-800.0
0
LINE
8
0
10
399.9391
20
296.51004
30
-800.0
11
399.9391
21
296.51004
31
-1200.0
0
LINE
8
0
10
399.9391
20
296.51004
30
-1200.0
11
399.86295
21
294.76642
31
-1200.0
0
LINE
8
0
10
399.86295
20
294.76642
30
-1200.0
11
399.86295
21
294.76642
31
-800.0
0
LINE
8
0
10
399.86295
20
294.76642
30
-800.0
11
399.9391
21
296.51004
31
-800.0
0
LINE
8
0
10
399.86295
20
294.76642
30
-800.0
11
399.86295
21
294.76642
31
-1200.0
0
LINE
8
0
10
399.86295
20
294.76642
30
-1200.0
11
399.7564
21
293.02435
31
-1200.0
0
LINE
8
0
10
399.7564
20
293.02435
30
-1200.0
11
399.7564
21
293.02435
31
-800.0
0
LINE
8
0
10
399.7564
20
293.02435
30
-800.0
11
399.86295
21
294.76642
31
-800.0
0
LINE
8
0
10
399.7564
20
293.02435
30
-800.0
11
399.7564
21
293.02435
31
-1200.0
0
LINE
8
0
10
399.7564
20
293.02435
30
-1200.0
11
399.61948
21
291.2844
31
-1200.0
0
LINE
8
0
10
399.61948
20
291.2844
30
-1200.0
11
399.61948
21
291.2844
31
-800.0
0
LINE
8
0
10
399.61948
20
291.2844
30
-800.0
11
399.7564
21
293.02435
31
-800.0
0
LINE
8
0
10
399.61948
20
291.2844
30
-800.0
11
399.61948
21
291.2844
31
-1200.0
0
LINE
8
0
10
399.61948
20
291.2844
30
-1200.0
11
399.45218
21
289.54715
31
-1200.0
0
LINE
8
0
10
399.45218
20
289.54715
30
-1200.0
11
399.45218
21
289.54715
31
-800.0
0
LINE
8
0
10
399.45218
20
289.54715
30
-800.0
11
399.61948
21
291.2844
31
-800.0
0
LINE
8
0
10
399.45218
20
289.54715
30
-800.0
11
399.45218
21
289.54715
31
-1200.0
0
LINE
8
0
10
399.45218
20
289.54715
30
-1200.0
11
399.2546
21
287.81305
31
-1200.0
0
LINE
8
0
10
399.2546
20
287.81305
30
-1200.0
11
399.2546
21
287.81305
31
-800.0
0
LINE
8
0
10
399.2546
20
287.81305
30
-800.0
11
399.45218
21
289.54715
31
-800.0
0
LINE
8
0
10
399.2546
20
287.81305
30
-800.0
11
399.2546
21
287.81305
31
-1200.0
0
LINE
8
0
10
399.2546
20
287.81305
30
-1200.0
11
399.0268
21
286.0827
31
-1200.0
0
LINE
8
0
10
399.0268
20
286.0827
30
-1200.0
11
399.0268
21
286.0827
31
-800.0
0
LINE
8
0
10
399.0268
20
286.0827
30
-800.0
11
399.2546
21
287.81305
31
-800.0
0
LINE
8
0
10
399.0268
20
286.0827
30
-800.0
11
399.0268
21
286.0827
31
-1200.0
0
LINE
8
0
10
399.0268
20
286.0827
30
-1200.0
11
398.76883
21
284.35657
31
-1200.0
0
LINE
8
0
10
398.76883
20
284.35657
30
-1200.0
11
398.76883
21
284.35657
31
-800.0
0
LINE
8
0
10
398.76883
20
284.35657
30
-800.0
11
399.0268
21
286.0827
31
-800.0
0
LINE
8
0
10
398.76883
20
284.35657
30
-800.0
11
398.76883
21
284.35657
31
-1200.0
0
LINE
8
0
10
398.76883
20
284.35657
30
-1200.0
11
398.48077
21
282.63516
31
-1200.0
0
LINE
8
0
10
398.48077
20
282.63516
30
-1200.0
11
398.48077
21
282.63516
31
-800.0
0
LINE
8
0
10
398.48077
20
282.63516
30
-800.0
11
398.76883
21
284.35657
31
-800.0
0
LINE
8
0
10
398.48077
20
282.63516
30
-800.0
11
398.48077
21
282.63516
31
-1200.0
0
LINE
8
0
10
398.48077
20
282.63516
30
-1200.0
11
398.16272
21
280.9191
31
-1200.0
0
LINE
8
0
10
398.16272
20
280.9191
30
-1200.0
11
398.16272
21
280.9191
31
-800.0
0
LINE
8
0
10
398.16272
20
280.9191
30
-800.0
11
398.48077
21
282.63516
31
-800.0
0
LINE
8
0
10
398.16272
20
280.9191
30
-800.0
11
398.16272
21
280.9191
31
-1200.0
0
LINE
8
0
10
398.16272
20
280.9191
30
-1200.0
11
397.81476
21
279.20883
31
-1200.0
0
LINE
8
0
10
397.81476
20
279.20883
30
-1200.0
11
397.81476
21
279.20883
31
-800.0
0
LINE
8
0
10
397.81476
20
279.20883
30
-800.0
11
398.16272
21
280.9191
31
-800.0
0
LINE
8
0
10
397.81476
20
279.20883
30
-800.0
11
397.81476
21
279.20883
31
-1200.0
0
LINE
8
0
10
397.81476
20
279.20883
30
-1200.0
11
397.437
21
277.50488
31
-1200.0
0
LINE
8
0
10
397.437
20
277.50488
30
-1200.0
11
397.437
21
277.50488
31
-800.0
0
LINE
8
0
10
397.437
20
277.50488
30
-800.0
11
397.81476
21
279.20883
31
-800.0
0
LINE
8
0
10
397.437
20
277.50488
30
-800.0
11
397.437
21
277.50488
31
-1200.0
0
LINE
8
0
10
397.437
20
277.50488
30
-1200.0
11
397.02957
21
275.80783
31
-1200.0
0
LINE
8
0
10
397.02957
20
275.80783
30
-1200.0
11
397.02957
21
275.80783
31
-800.0
0
LINE
8
0
10
397.02957
20
275.80783
30
-800.0
11
397.437
21
277.50488
31
-800.0
0
LINE
8
0
10
397.02957
20
275.80783
30
-800.0
11
397.02957
21
275.80783
31
-1200.0
0
LINE
8
0
10
397.02957
20
275.80783
30
-1200.0
11
396.5926
21
274.11807
31
-1200.0
0
LINE
8
0
10
396.5926
20
274.11807
30
-1200.0
11
396.5926
21
274.11807
31
-800.0
0
LINE
8
0
10
396.5926
20
274.11807
30
-800.0
11
397.02957
21
275.80783
31
-800.0
0
LINE
8
0
10
396.5926
20
274.11807
30
-800.0
11
396.5926
21
274.11807
31
-1200.0
0
LINE
8
0
10
396.5926
20
274.11807
30
-1200.0
11
396.12616
21
272.43625
31
-1200.0
0
LINE
8
0
10
396.12616
20
272.43625
30
-1200.0
11
396.12616
21
272.43625
31
-800.0
0
LINE
8
0
10
396.12616
20
272.43625
30
-800.0
11
396.5926
21
274.11807
31
-800.0
0
LINE
8
0
10
396.12616
20
272.43625
30
-800.0
11
396.12616
21
272.43625
31
-1200.0
0
LINE
8
0
10
396.12616
20
272.43625
30
-1200.0
11
395.63046
21
270.76282
31
-1200.0
0
LINE
8
0
10
395.63046
20
270.76282
30
-1200.0
11
395.63046
21
270.76282
31
-800.0
0
LINE
8
0
10
395.63046
20
270.76282
30
-800.0
11
396.12616
21
272.43625
31
-800.0
0
LINE
8
0
10
395.63046
20
270.76282
30
-800.0
11
395.63046
21
270.76282
31
-1200.0
0
LINE
8
0
10
395.63046
20
270.76282
30
-1200.0
11
395.10565
21
269.0983
31
-1200.0
0
LINE
8
0
10
395.10565
20
269.0983
30
-1200.0
11
395.10565
21
269.0983
31
-800.0
0
LINE
8
0
10
395.10565
20
269.0983
30
-800.0
11
395.63046
21
270.76282
31
-800.0
0
LINE
8
0
10
395.10565
20
269.0983
30
-800.0
11
395.10565
21
269.0983
31
-1200.0
0
LINE
8
0
10
395.10565
20
269.0983
30
-1200.0
11
394.55188
21
267.4432
31
-1200.0
0
LINE
8
0
10
394.55188
20
267.4432
30
-1200.0
11
394.55188
21
267.4432
31
-800.0
0
LINE
8
0
10
394.55188
20
267.4432
30
-800.0
11
395.10565
21
269.0983
31
-800.0
0
LINE
8
0
10
394.55188
20
267.4432
30
-800.0
11
394.55188
21
267.4432
31
-1200.0
0
LINE
8
0
10
394.55188
20
267.4432
30
-1200.0
11
393.96924
21
265.79797
31
-1200.0
0
LINE
8
0
10
393.96924
20
265.79797
30
-1200.0
11
393.96924
21
265.79797
31
-800.0
0
LINE
8
0
10
393.96924
20
265.79797
30
-800.0
11
394.55188
21
267.4432
31
-800.0
0
LINE
8
0
10
393.96924
20
265.79797
30
-800.0
11
393.96924
21
265.79797
31
-1200.0
0
LINE
8
0
10
393.96924
20
265.79797
30
-1200.0
11
393.35803
21
264.1632
31
-1200.0
0
LINE
8
0
10
393.35803
20
264.1632
30
-1200.0
11
393.35803
21
264.1632
31
-800.0
0
LINE
8
0
10
393.35803
20
264.1632
30
-800.0
11
393.96924
21
265.79797
31
-800.0
0
LINE
8
0
10
393.35803
20
264.1632
30
-800.0
11
393.35803
21
264.1632
31
-1200.0
0
LINE
8
0
10
393.35803
20
264.1632
30
-1200.0
11
392.71838
21
262.53934
31
-1200.0
0
LINE
8
0
10
392.71838
20
262.53934
30
-1200.0
11
392.71838
21
262.53934
31
-800.0
0
LINE
8
0
10
392.71838
20
262.53934
30
-800.0
11
393.35803
21
264.1632
31
-800.0
0
LINE
8
0
10
392.71838
20
262.53934
30
-800.0
11
392.71838
21
262.53934
31
-1200.0
0
LINE
8
0
10
392.71838
20
262.53934
30
-1200.0
11
392.05048
21
260.92688
31
-1200.0
0
LINE
8
0
10
392.05048
20
260.92688
30
-1200.0
11
392.05048
21
260.92688
31
-800.0
0
LINE
8
0
10
392.05048
20
260.92688
30
-800.0
11
392.71838
21
262.53934
31
-800.0
0
LINE
8
0
10
392.05048
20
260.92688
30
-800.0
11
392.05048
21
260.92688
31
-1200.0
0
LINE
8
0
10
392.05048
20
260.92688
30
-1200.0
11
391.35455
21
259.32635
31
-1200.0
0
LINE
8
0
10
391.35455
20
259.32635
30
-1200.0
11
391.35455
21
259.32635
31
-800.0
0
LINE
8
0
10
391.35455
20
259.32635
30
-800.0
11
392.05048
21
260.92688
31
-800.0
0
LINE
8
0
10
391.35455
20
259.32635
30
-800.0
11
391.35455
21
259.32635
31
-1200.0
0
LINE
8
0
10
391.35455
20
259.32635
30
-1200.0
11
390.63077
21
257.73816
31
-1200.0
0
LINE
8
0
10
390.63077
20
257.73816
30
-1200.0
11
390.63077
21
257.73816
31
-800.0
0
LINE
8
0
10
390.63077
20
257.73816
30
-800.0
11
391.35455
21
259.32635
31
-800.0
0
LINE
8
0
10
390.63077
20
257.73816
30
-800.0
11
390.63077
21
257.73816
31
-1200.0
0
LINE
8
0
10
390.63077
20
257.73816
30
-1200.0
11
389.8794
21
256.16287
31
-1200.0
0
LINE
8
0
10
389.8794
20
256.16287
30
-1200.0
11
389.8794
21
256.16287
31
-800.0
0
LINE
8
0
10
389.8794
20
256.16287
30
-800.0
11
390.63077
21
257.73816
31
-800.0
0
LINE
8
0
10
389.8794
20
256.16287
30
-800.0
11
389.8794
21
256.16287
31
-1200.0
0
LINE
8
0
10
389.8794
20
256.16287
30
-1200.0
11
389.10065
21
254.60095
31
-1200.0
0
LINE
8
0
10
389.10065
20
254.60095
30
-1200.0
11
389.10065
21
254.60095
31
-800.0
0
LINE
8
0
10
389.10065
20
254.60095
30
-800.0
11
389.8794
21
256.16287
31
-800.0
0
LINE
8
0
10
389.10065
20
254.60095
30
-800.0
11
389.10065
21
254.60095
31
-1200.0
0
LINE
8
0
10
389.10065
20
254.60095
30
-1200.0
11
388.29477
21
253.05286
31
-1200.0
0
LINE
8
0
10
388.29477
20
253.05286
30
-1200.0
11
388.29477
21
253.05286
31
-800.0
0
LINE
8
0
10
388.29477
20
253.05286
30
-800.0
11
389.10065
21
254.60095
31
-800.0
0
LINE
8
0
10
388.29477
20
253.05286
30
-800.0
11
388.29477
21
253.05286
31
-1200.0
0
LINE
8
0
10
388.29477
20
253.05286
30
-1200.0
11
387.46198
21
251.51906
31
-1200.0
0
LINE
8
0
10
387.46198
20
251.51906
30
-1200.0
11
387.46198
21
251.51906
31
-800.0
0
LINE
8
0
10
387.46198
20
251.51906
30
-800.0
11
388.29477
21
253.05286
31
-800.0
0
LINE
8
0
10
387.46198
20
251.51906
30
-800.0
11
387.46198
21
251.51906
31
-1200.0
0
LINE
8
0
10
387.46198
20
251.51906
30
-1200.0
11
386.60254
21
249.99998
31
-1200.0
0
LINE
8
0
10
386.60254
20
249.99998
30
-1200.0
11
386.60254
21
249.99998
31
-800.0
0
LINE
8
0
10
386.60254
20
249.99998
30
-800.0
11
387.46198
21
251.51906
31
-800.0
0
LINE
8
0
10
386.60254
20
249.99998
30
-800.0
11
386.60254
21
249.99998
31
-1200.0
0
LINE
8
0
10
386.60254
20
249.99998
30
-1200.0
11
385.71674
21
248.49619
31
-1200.0
0
LINE
8
0
10
385.71674
20
248.49619
30
-1200.0
11
385.71674
21
248.49619
31
-800.0
0
LINE
8
0
10
385.71674
20
248.49619
30
-800.0
11
386.60254
21
249.99998
31
-800.0
0
LINE
8
0
10
385.71674
20
248.49619
30
-800.0
11
385.71674
21
248.49619
31
-1200.0
0
LINE
8
0
10
385.71674
20
248.49619
30
-1200.0
11
384.8048
21
247.00807
31
-1200.0
0
LINE
8
0
10
384.8048
20
247.00807
30
-1200.0
11
384.8048
21
247.00807
31
-800.0
0
LINE
8
0
10
384.8048
20
247.00807
30
-800.0
11
385.71674
21
248.49619
31
-800.0
0
LINE
8
0
10
384.8048
20
247.00807
30
-800.0
11
384.8048
21
247.00807
31
-1200.0
0
LINE
8
0
10
384.8048
20
247.00807
30
-1200.0
11
383.86707
21
245.5361
31
-1200.0
0
LINE
8
0
10
383.86707
20
245.5361
30
-1200.0
11
383.86707
21
245.5361
31
-800.0
0
LINE
8
0
10
383.86707
20
245.5361
30
-800.0
11
384.8048
21
247.00807
31
-800.0
0
LINE
8
0
10
383.86707
20
245.5361
30
-800.0
11
383.86707
21
245.5361
31
-1200.0
0
LINE
8
0
10
383.86707
20
245.5361
30
-1200.0
11
382.90375
21
244.08069
31
-1200.0
0
LINE
8
0
10
382.90375
20
244.08069
30
-1200.0
11
382.90375
21
244.08069
31
-800.0
0
LINE
8
0
10
382.90375
20
244.08069
30
-800.0
11
383.86707
21
245.5361
31
-800.0
0
LINE
8
0
10
382.90375
20
244.08069
30
-800.0
11
382.90375
21
244.08069
31
-1200.0
0
LINE
8
0
10
382.90375
20
244.08069
30
-1200.0
11
381.9152
21
242.64233
31
-1200.0
0
LINE
8
0
10
381.9152
20
242.64233
30
-1200.0
11
381.9152
21
242.64233
31
-800.0
0
LINE
8
0
10
381.9152
20
242.64233
30
-800.0
11
382.90375
21
244.08069
31
-800.0
0
LINE
8
0
10
381.9152
20
242.64233
30
-800.0
11
381.9152
21
242.64233
31
-1200.0
0
LINE
8
0
10
381.9152
20
242.64233
30
-1200.0
11
380.9017
21
241.22147
31
-1200.0
0
LINE
8
0
10
380.9017
20
241.22147
30
-1200.0
11
380.9017
21
241.22147
31
-800.0
0
LINE
8
0
10
380.9017
20
241.22147
30
-800.0
11
381.9152
21
242.64233
31
-800.0
0
LINE
8
0
10
380.9017
20
241.22147
30
-800.0
11
380.9017
21
241.22147
31
-1200.0
0
LINE
8
0
10
380.9017
20
241.22147
30
-1200.0
11
379.86356
21
239.8185
31
-1200.0
0
LINE
8
0
10
379.86356
20
239.8185
30
-1200.0
11
379.86356
21
239.8185
31
-800.0
0
LINE
8
0
10
379.86356
20
239.8185
30
-800.0
11
380.9017
21
241.22147
31
-800.0
0
LINE
8
0
10
379.86356
20
239.8185
30
-800.0
11
379.86356
21
239.8185
31
-1200.0
0
LINE
8
0
10
379.86356
20
239.8185
30
-1200.0
11
378.8011
21
238.43387
31
-1200.0
0
LINE
8
0
10
378.8011
20
238.43387
30
-1200.0
11
378.8011
21
238.43387
31
-800.0
0
LINE
8
0
10
378.8011
20
238.43387
30
-800.0
11
379.86356
21
239.8185
31
-800.0
0
LINE
8
0
10
378.8011
20
238.43387
30
-800.0
11
378.8011
21
238.43387
31
-1200.0
0
LINE
8
0
10
378.8011
20
238.43387
30
-1200.0
11
377.71457
21
237.06793
31
-1200.0
0
LINE
8
0
10
377.71457
20
237.06793
30
-1200.0
11
377.71457
21
237.06793
31
-800.0
0
LINE
8
0
10
377.71457
20
237.06793
30
-800.0
11
378.8011
21
238.43387
31
-800.0
0
LINE
8
0
10
377.71457
20
237.06793
30
-800.0
11
377.71457
21
237.06793
31
-1200.0
0
LINE
8
0
10
377.71457
20
237.06793
30
-1200.0
11
376.60443
21
235.72122
31
-1200.0
0
LINE
8
0
10
376.60443
20
235.72122
30
-1200.0
11
376.60443
21
235.72122
31
-800.0
0
LINE
8
0
10
376.60443
20
235.72122
30
-800.0
11
377.71457
21
237.06793
31
-800.0
0
LINE
8
0
10
376.60443
20
235.72122
30
-800.0
11
376.60443
21
235.72122
31
-1200.0
0
LINE
8
0
10
376.60443
20
235.72122
30
-1200.0
11
375.47095
21
234.39409
31
-1200.0
0
LINE
8
0
10
375.47095
20
234.39409
30
-1200.0
11
375.47095
21
234.39409
31
-800.0
0
LINE
8
0
10
375.47095
20
234.39409
30
-800.0
11
376.60443
21
235.72122
31
-800.0
0
LINE
8
0
10
375.47095
20
234.39409
30
-800.0
11
375.47095
21
234.39409
31
-1200.0
0
LINE
8
0
10
375.47095
20
234.39409
30
-1200.0
11
374.31448
21
233.08694
31
-1200.0
0
LINE
8
0
10
374.31448
20
233.08694
30
-1200.0
11
374.31448
21
233.08694
31
-800.0
0
LINE
8
0
10
374.31448
20
233.08694
30
-800.0
11
375.47095
21
234.39409
31
-800.0
0
LINE
8
0
10
374.31448
20
233.08694
30
-800.0
11
374.31448
21
233.08694
31
-1200.0
0
LINE
8
0
10
374.31448
20
233.08694
30
-1200.0
11
373.13538
21
231.80017
31
-1200.0
0
LINE
8
0
10
373.13538
20
231.80017
30
-1200.0
11
373.13538
21
231.80017
31
-800.0
0
LINE
8
0
10
373.13538
20
231.80017
30
-800.0
11
374.31448
21
233.08694
31
-800.0
0
LINE
8
0
10
373.13538
20
231.80017
30
-800.0
11
373.13538
21
231.80017
31
-1200.0
0
LINE
8
0
10
373.13538
20
231.80017
30
-1200.0
11
371.93396
21
230.53415
31
-1200.0
0
LINE
8
0
10
371.93396
20
230.53415
30
-1200.0
11
371.93396
21
230.53415
31
-800.0
0
LINE
8
0
10
371.93396
20
230.53415
30
-800.0
11
373.13538
21
231.80017
31
-800.0
0
LINE
8
0
10
371.93396
20
230.53415
30
-800.0
11
371.93396
21
230.53415
31
-1200.0
0
LINE
8
0
10
371.93396
20
230.53415
30
-1200.0
11
370.71066
21
229.2893
31
-1200.0
0
LINE
8
0
10
370.71066
20
229.2893
30
-1200.0
11
370.71066
21
229.2893
31
-800.0
0
LINE
8
0
10
370.71066
20
229.2893
30
-800.0
11
371.93396
21
230.53415
31
-800.0
0
LINE
8
0
10
370.71066
20
229.2893
30
-800.0
11
370.71066
21
229.2893
31
-1200.0
0
LINE
8
0
10
370.71066
20
229.2893
30
-1200.0
11
369.46582
21
228.06601
31
-1200.0
0
LINE
8
0
10
369.46582
20
228.06601
30
-1200.0
11
369.46582
21
228.06601
31
-800.0
0
LINE
8
0
10
369.46582
20
228.06601
30
-800.0
11
370.71066
21
229.2893
31
-800.0
0
LINE
8
0
10
369.46582
20
228.06601
30
-800.0
11
369.46582
21
228.06601
31
-1200.0
0
LINE
8
0
10
369.46582
20
228.06601
30
-1200.0
11
368.19983
21
226.86464
31
-1200.0
0
LINE
8
0
10
368.19983
20
226.86464
30
-1200.0
11
368.19983
21
226.86464
31
-800.0
0
LINE
8
0
10
368.19983
20
226.86464
30
-800.0
11
369.46582
21
228.06601
31
-800.0
0
LINE
8
0
10
368.19983
20
226.86464
30
-800.0
11
368.19983
21
226.86464
31
-1200.0
0
LINE
8
0
10
368.19983
20
226.86464
30
-1200.0
11
366.9131
21
225.68552
31
-1200.0
0
LINE
8
0
10
366.9131
20
225.68552
30
-1200.0
11
366.9131
21
225.68552
31
-800.0
0
LINE
8
0
10
366.9131
20
225.68552
30
-800.0
11
368.19983
21
226.86464
31
-800.0
0
LINE
8
0
10
366.9131
20
225.68552
30
-800.0
11
366.9131
21
225.68552
31
-1200.0
0
LINE
8
0
10
366.9131
20
225.68552
30
-1200.0
11
365.6059
21
224.52902
31
-1200.0
0
LINE
8
0
10
365.6059
20
224.52902
30
-1200.0
11
365.6059
21
224.52902
31
-800.0
0
LINE
8
0
10
365.6059
20
224.52902
30
-800.0
11
366.9131
21
225.68552
31
-800.0
0
LINE
8
0
10
365.6059
20
224.52902
30
-800.0
11
365.6059
21
224.52902
31
-1200.0
0
LINE
8
0
10
365.6059
20
224.52902
30
-1200.0
11
364.27875
21
223.39555
31
-1200.0
0
LINE
8
0
10
364.27875
20
223.39555
30
-1200.0
11
364.27875
21
223.39555
31
-800.0
0
LINE
8
0
10
364.27875
20
223.39555
30
-800.0
11
365.6059
21
224.52902
31
-800.0
0
LINE
8
0
10
364.27875
20
223.39555
30
-800.0
11
364.27875
21
223.39555
31
-1200.0
0
LINE
8
0
10
364.27875
20
223.39555
30
-1200.0
11
362.93204
21
222.2854
31
-1200.0
0
LINE
8
0
10
362.93204
20
222.2854
30
-1200.0
11
362.93204
21
222.2854
31
-800.0
0
LINE
8
0
10
362.93204
20
222.2854
30
-800.0
11
364.27875
21
223.39555
31
-800.0
0
LINE
8
0
10
362.93204
20
222.2854
30
-800.0
11
362.93204
21
222.2854
31
-1200.0
0
LINE
8
0
10
362.93204
20
222.2854
30
-1200.0
11
361.56616
21
221.19893
31
-1200.0
0
LINE
8
0
10
361.56616
20
221.19893
30
-1200.0
11
361.56616
21
221.19893
31
-800.0
0
LINE
8
0
10
361.56616
20
221.19893
30
-800.0
11
362.93204
21
222.2854
31
-800.0
0
LINE
8
0
10
361.56616
20
221.19893
30
-800.0
11
361.56616
21
221.19893
31
-1200.0
0
LINE
8
0
10
361.56616
20
221.19893
30
-1200.0
11
360.18152
21
220.13646
31
-1200.0
0
LINE
8
0
10
360.18152
20
220.13646
30
-1200.0
11
360.18152
21
220.13646
31
-800.0
0
LINE
8
0
10
360.18152
20
220.13646
30
-800.0
11
361.56616
21
221.19893
31
-800.0
0
LINE
8
0
10
360.18152
20
220.13646
30
-800.0
11
360.18152
21
220.13646
31
-1200.0
0
LINE
8
0
10
360.18152
20
220.13646
30
-1200.0
11
358.7785
21
219.0983
31
-1200.0
0
LINE
8
0
10
358.7785
20
219.0983
30
-1200.0
11
358.7785
21
219.0983
31
-800.0
0
LINE
8
0
10
358.7785
20
219.0983
30
-800.0
11
360.18152
21
220.13646
31
-800.0
0
LINE
8
0
10
358.7785
20
219.0983
30
-800.0
11
358.7785
21
219.0983
31
-1200.0
0
LINE
8
0
10
358.7785
20
219.0983
30
-1200.0
11
357.35764
21
218.08478
31
-1200.0
0
LINE
8
0
10
357.35764
20
218.08478
30
-1200.0
11
357.35764
21
218.08478
31
-800.0
0
LINE
8
0
10
357.35764
20
218.08478
30
-800.0
11
358.7785
21
219.0983
31
-800.0
0
LINE
8
0
10
357.35764
20
218.08478
30
-800.0
11
357.35764
21
218.08478
31
-1200.0
0
LINE
8
0
10
357.35764
20
218.08478
30
-1200.0
11
355.91928
21
217.09624
31
-1200.0
0
LINE
8
0
10
355.91928
20
217.09624
30
-1200.0
11
355.91928
21
217.09624
31
-800.0
0
LINE
8
0
10
355.91928
20
217.09624
30
-800.0
11
357.35764
21
218.08478
31
-800.0
0
LINE
8
0
10
355.91928
20
217.09624
30
-800.0
11
355.91928
21
217.09624
31
-1200.0
0
LINE
8
0
10
355.91928
20
217.09624
30
-1200.0
11
354.46393
21
216.13295
31
-1200.0
0
LINE
8
0
10
354.46393
20
216.13295
30
-1200.0
11
354.46393
21
216.13295
31
-800.0
0
LINE
8
0
10
354.46393
20
216.13295
30
-800.0
11
355.91928
21
217.09624
31
-800.0
0
LINE
8
0
10
354.46393
20
216.13295
30
-800.0
11
354.46393
21
216.13295
31
-1200.0
0
LINE
8
0
10
354.46393
20
216.13295
30
-1200.0
11
352.99194
21
215.1952
31
-1200.0
0
LINE
8
0
10
352.99194
20
215.1952
30
-1200.0
11
352.99194
21
215.1952
31
-800.0
0
LINE
8
0
10
352.99194
20
215.1952
30
-800.0
11
354.46393
21
216.13295
31
-800.0
0
LINE
8
0
10
352.99194
20
215.1952
30
-800.0
11
352.99194
21
215.1952
31
-1200.0
0
LINE
8
0
10
352.99194
20
215.1952
30
-1200.0
11
351.50378
21
214.28326
31
-1200.0
0
LINE
8
0
10
351.50378
20
214.28326
30
-1200.0
11
351.50378
21
214.28326
31
-800.0
0
LINE
8
0
10
351.50378
20
214.28326
30
-800.0
11
352.99194
21
215.1952
31
-800.0
0
LINE
8
0
10
351.50378
20
214.28326
30
-800.0
11
351.50378
21
214.28326
31
-1200.0
0
LINE
8
0
10
351.50378
20
214.28326
30
-1200.0
11
350.0
21
213.39746
31
-1200.0
0
LINE
8
0
10
350.0
20
213.39746
30
-1200.0
11
350.0
21
213.39746
31
-800.0
0
LINE
8
0
10
350.0
20
213.39746
30
-800.0
11
351.50378
21
214.28326
31
-800.0
0
LINE
8
0
10
350.0
20
213.39746
30
-800.0
11
350.0
21
213.39746
31
-1200.0
0
LINE
8
0
10
350.0
20
213.39746
30
-1200.0
11
348.48096
21
212.53802
31
-1200.0
0
LINE
8
0
10
348.48096
20
212.53802
30
-1200.0
11
348.48096
21
212.53802
31
-800.0
0
LINE
8
0
10
348.48096
20
212.53802
30
-800.0
11
350.0
21
213.39746
31
-800.0
0
LINE
8
0
10
348.48096
20
212.53802
30
-800.0
11
348.48096
21
212.53802
31
-1200.0
0
LINE
8
0
10
348.48096
20
212.53802
30
-1200.0
11
346.94717
21
211.70525
31
-1200.0
0
LINE
8
0
10
346.94717
20
211.70525
30
-1200.0
11
346.94717
21
211.70525
31
-800.0
0
LINE
8
0
10
346.94717
20
211.70525
30
-800.0
11
348.48096
21
212.53802
31
-800.0
0
LINE
8
0
10
346.94717
20
211.70525
30
-800.0
11
346.94717
21
211.70525
31
-1200.0
0
LINE
8
0
10
346.94717
20
211.70525
30
-1200.0
11
345.39902
21
210.89934
31
-1200.0
0
LINE
8
0
10
345.39902
20
210.89934
30
-1200.0
11
345.39902
21
210.89934
31
-800.0
0
LINE
8
0
10
345.39902
20
210.89934
30
-800.0
11
346.94717
21
211.70525
31
-800.0
0
LINE
8
0
10
345.39902
20
210.89934
30
-800.0
11
345.39902
21
210.89934
31
-1200.0
0
LINE
8
0
10
345.39902
20
210.89934
30
-1200.0
11
343.8371
21
210.12059
31
-1200.0
0
LINE
8
0
10
343.8371
20
210.12059
30
-1200.0
11
343.8371
21
210.12059
31
-800.0
0
LINE
8
0
10
343.8371
20
210.12059
30
-800.0
11
345.39902
21
210.89934
31
-800.0
0
LINE
8
0
10
343.8371
20
210.12059
30
-800.0
11
343.8371
21
210.12059
31
-1200.0
0
LINE
8
0
10
343.8371
20
210.12059
30
-1200.0
11
342.2618
21
209.36922
31
-1200.0
0
LINE
8
0
10
342.2618
20
209.36922
30
-1200.0
11
342.2618
21
209.36922
31
-800.0
0
LINE
8
0
10
342.2618
20
209.36922
30
-800.0
11
343.8371
21
210.12059
31
-800.0
0
LINE
8
0
10
342.2618
20
209.36922
30
-800.0
11
342.2618
21
209.36922
31
-1200.0
0
LINE
8
0
10
342.2618
20
209.36922
30
-1200.0
11
340.67368
21
208.64545
31
-1200.0
0
LINE
8
0
10
340.67368
20
208.64545
30
-1200.0
11
340.67368
21
208.64545
31
-800.0
0
LINE
8
0
10
340.67368
20
208.64545
30
-800.0
11
342.2618
21
209.36922
31
-800.0
0
LINE
8
0
10
340.67368
20
208.64545
30
-800.0
11
340.67368
21
208.64545
31
-1200.0
0
LINE
8
0
10
340.67368
20
208.64545
30
-1200.0
11
339.07312
21
207.94952
31
-1200.0
0
LINE
8
0
10
339.07312
20
207.94952
30
-1200.0
11
339.07312
21
207.94952
31
-800.0
0
LINE
8
0
10
339.07312
20
207.94952
30
-800.0
11
340.67368
21
208.64545
31
-800.0
0
LINE
8
0
10
339.07312
20
207.94952
30
-800.0
11
339.07312
21
207.94952
31
-1200.0
0
LINE
8
0
10
339.07312
20
207.94952
30
-1200.0
11
337.46063
21
207.28162
31
-1200.0
0
LINE
8
0
10
337.46063
20
207.28162
30
-1200.0
11
337.46063
21
207.28162
31
-800.0
0
LINE
8
0
10
337.46063
20
207.28162
30
-800.0
11
339.07312
21
207.94952
31
-800.0
0
LINE
8
0
10
337.46063
20
207.28162
30
-800.0
11
337.46063
21
207.28162
31
-1200.0
0
LINE
8
0
10
337.46063
20
207.28162
30
-1200.0
11
335.8368
21
206.64195
31
-1200.0
0
LINE
8
0
10
335.8368
20
206.64195
30
-1200.0
11
335.8368
21
206.64195
31
-800.0
0
LINE
8
0
10
335.8368
20
206.64195
30
-800.0
11
337.46063
21
207.28162
31
-800.0
0
LINE
8
0
10
335.8368
20
206.64195
30
-800.0
11
335.8368
21
206.64195
31
-1200.0
0
LINE
8
0
10
335.8368
20
206.64195
30
-1200.0
11
334.20203
21
206.03073
31
-1200.0
0
LINE
8
0
10
334.20203
20
206.03073
30
-1200.0
11
334.20203
21
206.03073
31
-800.0
0
LINE
8
0
10
334.20203
20
206.03073
30
-800.0
11
335.8368
21
206.64195
31
-800.0
0
LINE
8
0
10
334.20203
20
206.03073
30
-800.0
11
334.20203
21
206.03073
31
-1200.0
0
LINE
8
0
10
334.20203
20
206.03073
30
-1200.0
11
332.55682
21
205.44815
31
-1200.0
0
LINE
8
0
10
332.55682
20
205.44815
30
-1200.0
11
332.55682
21
205.44815
31
-800.0
0
LINE
8
0
10
332.55682
20
205.44815
30
-800.0
11
334.20203
21
206.03073
31
-800.0
0
LINE
8
0
10
332.55682
20
205.44815
30
-800.0
11
332.55682
21
205.44815
31
-1200.0
0
LINE
8
0
10
332.55682
20
205.44815
30
-1200.0
11
330.9017
21
204.89435
31
-1200.0
0
LINE
8
0
10
330.9017
20
204.89435
30
-1200.0
11
330.9017
21
204.89435
31
-800.0
0
LINE
8
0
10
330.9017
20
204.89435
30
-800.0
11
332.55682
21
205.44815
31
-800.0
0
LINE
8
0
10
330.9017
20
204.89435
30
-800.0
11
330.9017
21
204.89435
31
-1200.0
0
LINE
8
0
10
330.9017
20
204.89435
30
-1200.0
11
329.23715
21
204.3695
31
-1200.0
0
LINE
8
0
10
329.23715
20
204.3695
30
-1200.0
11
329.23715
21
204.3695
31
-800.0
0
LINE
8
0
10
329.23715
20
204.3695
30
-800.0
11
330.9017
21
204.89435
31
-800.0
0
LINE
8
0
10
329.23715
20
204.3695
30
-800.0
11
329.23715
21
204.3695
31
-1200.0
0
LINE
8
0
10
329.23715
20
204.3695
30
-1200.0
11
327.56372
21
203.87383
31
-1200.0
0
LINE
8
0
10
327.56372
20
203.87383
30
-1200.0
11
327.56372
21
203.87383
31
-800.0
0
LINE
8
0
10
327.56372
20
203.87383
30
-800.0
11
329.23715
21
204.3695
31
-800.0
0
LINE
8
0
10
327.56372
20
203.87383
30
-800.0
11
327.56372
21
203.87383
31
-1200.0
0
LINE
8
0
10
327.56372
20
203.87383
30
-1200.0
11
325.8819
21
203.40741
31
-1200.0
0
LINE
8
0
10
325.8819
20
203.40741
30
-1200.0
11
325.8819
21
203.40741
31
-800.0
0
LINE
8
0
10
325.8819
20
203.40741
30
-800.0
11
327.56372
21
203.87383
31
-800.0
0
LINE
8
0
10
325.8819
20
203.40741
30
-800.0
11
325.8819
21
203.40741
31
-1200.0
0
LINE
8
0
10
325.8819
20
203.40741
30
-1200.0
11
324.1922
21
202.97043
31
-1200.0
0
LINE
8
0
10
324.1922
20
202.97043
30
-1200.0
11
324.1922
21
202.97043
31
-800.0
0
LINE
8
0
10
324.1922
20
202.97043
30
-800.0
11
325.8819
21
203.40741
31
-800.0
0
LINE
8
0
10
324.1922
20
202.97043
30
-800.0
11
324.1922
21
202.97043
31
-1200.0
0
LINE
8
0
10
324.1922
20
202.97043
30
-1200.0
11
322.49512
21
202.563
31
-1200.0
0
LINE
8
0
10
322.49512
20
202.563
30
-1200.0
11
322.49512
21
202.563
31
-800.0
0
LINE
8
0
10
322.49512
20
202.563
30
-800.0
11
324.1922
21
202.97043
31
-800.0
0
LINE
8
0
10
322.49512
20
202.563
30
-800.0
11
322.49512
21
202.563
31
-1200.0
0
LINE
8
0
10
322.49512
20
202.563
30
-1200.0
11
320.79114
21
202.18524
31
-1200.0
0
LINE
8
0
10
320.79114
20
202.18524
30
-1200.0
11
320.79114
21
202.18524
31
-800.0
0
LINE
8
0
10
320.79114
20
202.18524
30
-800.0
11
322.49512
21
202.563
31
-800.0
0
LINE
8
0
10
320.79114
20
202.18524
30
-800.0
11
320.79114
21
202.18524
31
-1200.0
0
LINE
8
0
10
320.79114
20
202.18524
30
-1200.0
11
319.08087
21
201.83728
31
-1200.0
0
LINE
8
0
10
319.08087
20
201.83728
30
-1200.0
11
319.08087
21
201.83728
31
-800.0
0
LINE
8
0
10
319.08087
20
201.83728
30
-800.0
11
320.79114
21
202.18524
31
-800.0
0
LINE
8
0
10
319.08087
20
201.83728
30
-800.0
11
319.08087
21
201.83728
31
-1200.0
0
LINE
8
0
10
319.08087
20
201.83728
30
-1200.0
11
317.3648
21
201.51923
31
-1200.0
0
LINE
8
0
10
317.3648
20
201.51923
30
-1200.0
11
317.3648
21
201.51923
31
-800.0
0
LINE
8
0
10
317.3648
20
201.51923
30
-800.0
11
319.08087
21
201.83728
31
-800.0
0
LINE
8
0
10
317.3648
20
201.51923
30
-800.0
11
317.3648
21
201.51923
31
-1200.0
0
LINE
8
0
10
317.3648
20
201.51923
30
-1200.0
11
315.64346
21
201.23117
31
-1200.0
0
LINE
8
0
10
315.64346
20
201.23117
30
-1200.0
11
315.64346
21
201.23117
31
-800.0
0
LINE
8
0
10
315.64346
20
201.23117
30
-800.0
11
317.3648
21
201.51923
31
-800.0
0
LINE
8
0
10
315.64346
20
201.23117
30
-800.0
11
315.64346
21
201.23117
31
-1200.0
0
LINE
8
0
10
315.64346
20
201.23117
30
-1200.0
11
313.91733
21
200.9732
31
-1200.0
0
LINE
8
0
10
313.91733
20
200.9732
30
-1200.0
11
313.91733
21
200.9732
31
-800.0
0
LINE
8
0
10
313.91733
20
200.9732
30
-800.0
11
315.64346
21
201.23117
31
-800.0
0
LINE
8
0
10
313.91733
20
200.9732
30
-800.0
11
313.91733
21
200.9732
31
-1200.0
0
LINE
8
0
10
313.91733
20
200.9732
30
-1200.0
11
312.18692
21
200.74538
31
-1200.0
0
LINE
8
0
10
312.18692
20
200.74538
30
-1200.0
11
312.18692
21
200.74538
31
-800.0
0
LINE
8
0
10
312.18692
20
200.74538
30
-800.0
11
313.91733
21
200.9732
31
-800.0
0
LINE
8
0
10
312.18692
20
200.74538
30
-800.0
11
312.18692
21
200.74538
31
-1200.0
0
LINE
8
0
10
312.18692
20
200.74538
30
-1200.0
11
310.45285
21
200.5478
31
-1200.0
0
LINE
8
0
10
310.45285
20
200.5478
30
-1200.0
11
310.45285
21
200.5478
31
-800.0
0
LINE
8
0
10
310.45285
20
200.5478
30
-800.0
11
312.18692
21
200.74538
31
-800.0
0
LINE
8
0
10
310.45285
20
200.5478
30
-800.0
11
310.45285
21
200.5478
31
-1200.0
0
LINE
8
0
10
310.45285
20
200.5478
30
-1200.0
11
308.71558
21
200.38052
31
-1200.0
0
LINE
8
0
10
308.71558
20
200.38052
30
-1200.0
11
308.71558
21
200.38052
31
-800.0
0
LINE
8
0
10
308.71558
20
200.38052
30
-800.0
11
310.45285
21
200.5478
31
-800.0
0
LINE
8
0
10
308.71558
20
200.38052
30
-800.0
11
308.71558
21
200.38052
31
-1200.0
0
LINE
8
0
10
308.71558
20
200.38052
30
-1200.0
11
306.97565
21
200.24359
31
-1200.0
0
LINE
8
0
10
306.97565
20
200.24359
30
-1200.0
11
306.97565
21
200.24359
31
-800.0
0
LINE
8
0
10
306.97565
20
200.24359
30
-800.0
11
308.71558
21
200.38052
31
-800.0
0
LINE
8
0
10
306.97565
20
200.24359
30
-800.0
11
306.97565
21
200.24359
31
-1200.0
0
LINE
8
0
10
306.97565
20
200.24359
30
-1200.0
11
305.2336
21
200.13705
31
-1200.0
0
LINE
8
0
10
305.2336
20
200.13705
30
-1200.0
11
305.2336
21
200.13705
31
-800.0
0
LINE
8
0
10
305.2336
20
200.13705
30
-800.0
11
306.97565
21
200.24359
31
-800.0
0
LINE
8
0
10
305.2336
20
200.13705
30
-800.0
11
305.2336
21
200.13705
31
-1200.0
0
LINE
8
0
10
305.2336
20
200.13705
30
-1200.0
11
303.48993
21
200.06091
31
-1200.0
0
LINE
8
0
10
303.48993
20
200.06091
30
-1200.0
11
303.48993
21
200.06091
31
-800.0
0
LINE
8
0
10
303.48993
20
200.06091
30
-800.0
11
305.2336
21
200.13705
31
-800.0
0
LINE
8
0
10
303.48993
20
200.06091
30
-800.0
11
303.48993
21
200.06091
31
-1200.0
0
LINE
8
0
10
303.48993
20
200.06091
30
-1200.0
11
301.74524
21
200.01523
31
-1200.0
0
LINE
8
0
10
301.74524
20
200.01523
30
-1200.0
11
301.74524
21
200.01523
31
-800.0
0
LINE
8
0
10
301.74524
20
200.01523
30
-800.0
11
303.48993
21
200.06091
31
-800.0
0
LINE
8
0
10
301.74524
20
200.01523
30
-800.0
11
301.74524
21
200.01523
31
-1200.0
0
LINE
8
0
10
301.74524
20
200.01523
30
-1200.0
11
300.0
21
200.0
31
-1200.0
0
LINE
8
0
10
300.0
20
200.0
30
-1200.0
11
300.0
21
200.0
31
-800.0
0
LINE
8
0
10
300.0
20
200.0
30
-800.0
11
301.74524
21
200.01523
31
-800.0
0
LINE
8
0
10
300.0
20
200.0
30
-800.0
11
300.0
21
200.0
31
-1200.0
0
LINE
8
0
10
300.0
20
200.0
30
-1200.0
11
200.0
21
200.0
31
-1200.0
0
LINE
8
0
10
200.0
20
200.0
30
-1200.0
11
200.0
21
200.0
31
-800.0
0
LINE
8
0
10
200.0
20
200.0
30
-800.0
11
300.0
21
200.0
31
-800.0
0
LINE
8
0
10
200.0
20
200.0
30
-800.0
11
200.0
21
200.0
31
-1200.0
0
LINE
8
0
10
200.0
20
200.0
30
-1200.0
11
200.0
21
0.0
31
-1200.0
0
LINE
8
0
10
200.0
20
0.0
30
-1200.0
11
200.0
21
0.0
31
-800.0
0
LINE
8
0
10
200.0
20
0.0
30
-800.0
11
200.0
21
200.0
31
-800.0
0
LINE
8
0
10
200.0
20
0.0
30
-800.0
11
200.0
21
0.0
31
-1200.0
0
LINE
8
0
10
200.0
20
0.0
30
-1200.0
11
100.0
21
0.0
31
-1200.0
0
LINE
8
0
10
100.0
20
0.0
30
-1200.0
11
100.0
21
0.0
31
-800.0
0
LINE
8
0
10
100.0
20
0.0
30
-800.0
11
200.0
21
0.0
31
-800.0
0
LINE
8
0
10
100.0
20
0.0
30
-800.0
11
100.0
21
0.0
31
-1200.0
0
LINE
8
0
10
100.0
20
0.0
30
-1200.0
11
0.0
21
100.0
31
-1200.0
0
LINE
8
0
10
0.0
20
100.0
30
-1200.0
11
0.0
21
100.0
31
-800.0
0
LINE
8
0
10
0.0
20
100.0
30
-800.0
11
100.0
21
0.0
31
-800.0
0
LINE
8
0
10
0.0
20
100.0
30
-800.0
11
0.0
21
100.0
31
-1200.0
0
LINE
8
0
10
0.0
20
100.0
30
-1200.0
11
0.0
21
400.0
31
-1200.0
0
LINE
8
0
10
0.0
20
400.0
30
-1200.0
11
0.0
21
400.0
31
-800.0
0
LINE
8
0
10
0.0
20
400.0
30
-800.0
11
0.0
21
100.0
31
-800.0
0
ENDSEC
0
EOF
